$MeshFormat
4.1 0 8
$EndMeshFormat
$PhysicalNames
3
1 1 "dirichlet"
1 2 "neumann"
2 1 "inner"
$EndPhysicalNames
$Entities
5 5 1 0
1 0 1 0 0 
2 0 0 0 0 
3 1 1 0 0 
4 1.000000000000002 0.5 0 0 
5 0.5 -1.895419755111149e-14 0 0 
1 -1e-07 -9.999999994736442e-08 -1e-07 1e-07 1.0000001 1e-07 1 2 2 1 -2 
2 -9.999999994736442e-08 0.9999999000000001 -1e-07 1.0000001 1.0000001 1e-07 1 2 2 3 -1 
3 0.9999999000000001 0.4999999 -1e-07 1.0000001 1.0000001 1e-07 1 1 2 4 -3 
4 0.4999999 -9.999999994736442e-08 -1e-07 1.0000001 0.5000000999999999 1e-07 1 2 2 4 -5 
5 -9.999999997511999e-08 -1e-07 -1e-07 0.5000000999999999 1e-07 1e-07 1 1 2 2 -5 
1 -9.999999994736442e-08 -9.999999994736442e-08 -1e-07 1.0000001 1.0000001 1e-07 1 1 5 1 5 -4 3 2 
$EndEntities
$Nodes
11 1164 1 1164
0 1 0 1
1
0 1 0
0 2 0 1
2
0 0 0
0 3 0 1
3
1 1 0
0 4 0 1
4
1.000000000000002 0.5 0
0 5 0 1
5
0.5 -1.895419755111149e-14 0
1 1 0 33
6
7
8
9
10
11
12
13
14
15
16
17
18
19
20
21
22
23
24
25
26
27
28
29
30
31
32
33
34
35
36
37
38
0 0.9705882352941176 0
0 0.9411764705882353 0
0 0.9117647058823528 0
0 0.8823529411764705 0
0 0.8529411764705881 0
0 0.8235294117647057 0
0 0.7941176470588234 0
0 0.7647058823529409 0
0 0.7352941176470585 0
0 0.7058823529411761 0
0 0.6764705882352935 0
0 0.6470588235294111 0
0 0.6176470588235287 0
0 0.5882352941176462 0
0 0.5588235294117638 0
0 0.5294117647058814 0
0 0.4999999999999989 0
0 0.4705882352941168 0
0 0.4411764705882344 0
0 0.4117647058823521 0
0 0.3823529411764699 0
0 0.3529411764705876 0
0 0.3235294117647054 0
0 0.2941176470588232 0
0 0.2647058823529408 0
0 0.2352941176470587 0
0 0.2058823529411764 0
0 0.176470588235294 0
0 0.1470588235294118 0
0 0.1176470588235297 0
0 0.0882352941176473 0
0 0.05882352941176505 0
0 0.02941176470588269 0
1 2 0 33
39
40
41
42
43
44
45
46
47
48
49
50
51
52
53
54
55
56
57
58
59
60
61
62
63
64
65
66
67
68
69
70
71
0.9705882352941176 1 0
0.9411764705882353 1 0
0.9117647058823528 1 0
0.8823529411764705 1 0
0.8529411764705881 1 0
0.8235294117647057 1 0
0.7941176470588234 1 0
0.7647058823529409 1 0
0.7352941176470585 1 0
0.7058823529411761 1 0
0.6764705882352935 1 0
0.6470588235294111 1 0
0.6176470588235287 1 0
0.5882352941176462 1 0
0.5588235294117638 1 0
0.5294117647058814 1 0
0.4999999999999989 1 0
0.4705882352941168 1 0
0.4411764705882344 1 0
0.4117647058823521 1 0
0.3823529411764699 1 0
0.3529411764705876 1 0
0.3235294117647054 1 0
0.2941176470588232 1 0
0.2647058823529408 1 0
0.2352941176470587 1 0
0.2058823529411764 1 0
0.176470588235294 1 0
0.1470588235294118 1 0
0.1176470588235297 1 0
0.0882352941176473 1 0
0.05882352941176505 1 0
0.02941176470588269 1 0
1 3 0 16
72
73
74
75
76
77
78
79
80
81
82
83
84
85
86
87
1 0.5294117647058824 0
1 0.5588235294117648 0
1 0.5882352941176472 0
1 0.6176470588235295 0
1 0.647058823529412 0
1 0.6764705882352944 0
1 0.7058823529411768 0
1 0.7352941176470593 0
1 0.7647058823529417 0
1 0.7941176470588239 0
1 0.8235294117647062 0
1 0.8529411764705884 0
1 0.8823529411764707 0
1 0.9117647058823529 0
1 0.9411764705882352 0
1 0.9705882352941174 0
1 4 0 26
88
89
90
91
92
93
94
95
96
97
98
99
100
101
102
103
104
105
106
107
108
109
110
111
112
113
0.9709275855447622 0.4991540791356341 0
0.941953542937385 0.4966191788709715 0
0.913175911166535 0.4924038765061041 0
0.8846920646287801 0.486522435289912 0
0.8565983836444552 0.4789947561577446 0
0.828989928337166 0.4698463103929543 0
0.801960116980422 0.4591080534401372 0
0.7756004098997695 0.4468163201617064 0
0.7500000000000007 0.4330127018922197 0
0.7252455109645977 0.4177439057064687 0
0.7014207041486076 0.4010615963775224 0
0.678606195156731 0.3830222215594896 0
0.6568791810656339 0.363686820786525 0
0.6363131792134764 0.3431208189343676 0
0.6169777784405117 0.3213938048432706 0
0.598938403622479 0.2985792958513941 0
0.5822560942935324 0.274754489035404 0
0.5669872981077813 0.2500000000000009 0
0.5531836798382943 0.2243995901002319 0
0.5408919465598634 0.1980398830195792 0
0.530153689607046 0.1710100716628351 0
0.5210052438422557 0.1434016163555457 0
0.5134775647100882 0.1153079353712206 0
0.507596123493896 0.08682408883346557 0
0.5033808211290285 0.0580464570626154 0
0.5008459208643659 0.02907241445523809 0
1 5 0 16
114
115
116
117
118
119
120
121
122
123
124
125
126
127
128
129
0.02941176470588239 0 0
0.0588235294117648 0 0
0.08823529411764715 0 0
0.1176470588235295 0 0
0.147058823529412 0 0
0.1764705882352944 0 0
0.2058823529411769 0 0
0.2352941176470593 0 0
0.2647058823529416 0 0
0.2941176470588239 0 0
0.3235294117647062 0 0
0.3529411764705884 0 0
0.3823529411764707 0 0
0.411764705882353 0 0
0.4411764705882352 0 0
0.4705882352941175 0 0
2 1 0 1035
130
131
132
133
134
135
136
137
138
139
140
141
142
143
144
145
146
147
148
149
150
151
152
153
154
155
156
157
158
159
160
161
162
163
164
165
166
167
168
169
170
171
172
173
174
175
176
177
178
179
180
181
182
183
184
185
186
187
188
189
190
191
192
193
194
195
196
197
198
199
200
201
202
203
204
205
206
207
208
209
210
211
212
213
214
215
216
217
218
219
220
221
222
223
224
225
226
227
228
229
230
231
232
233
234
235
236
237
238
239
240
241
242
243
244
245
246
247
248
249
250
251
252
253
254
255
256
257
258
259
260
261
262
263
264
265
266
267
268
269
270
271
272
273
274
275
276
277
278
279
280
281
282
283
284
285
286
287
288
289
290
291
292
293
294
295
296
297
298
299
300
301
302
303
304
305
306
307
308
309
310
311
312
313
314
315
316
317
318
319
320
321
322
323
324
325
326
327
328
329
330
331
332
333
334
335
336
337
338
339
340
341
342
343
344
345
346
347
348
349
350
351
352
353
354
355
356
357
358
359
360
361
362
363
364
365
366
367
368
369
370
371
372
373
374
375
376
377
378
379
380
381
382
383
384
385
386
387
388
389
390
391
392
393
394
395
396
397
398
399
400
401
402
403
404
405
406
407
408
409
410
411
412
413
414
415
416
417
418
419
420
421
422
423
424
425
426
427
428
429
430
431
432
433
434
435
436
437
438
439
440
441
442
443
444
445
446
447
448
449
450
451
452
453
454
455
456
457
458
459
460
461
462
463
464
465
466
467
468
469
470
471
472
473
474
475
476
477
478
479
480
481
482
483
484
485
486
487
488
489
490
491
492
493
494
495
496
497
498
499
500
501
502
503
504
505
506
507
508
509
510
511
512
513
514
515
516
517
518
519
520
521
522
523
524
525
526
527
528
529
530
531
532
533
534
535
536
537
538
539
540
541
542
543
544
545
546
547
548
549
550
551
552
553
554
555
556
557
558
559
560
561
562
563
564
565
566
567
568
569
570
571
572
573
574
575
576
577
578
579
580
581
582
583
584
585
586
587
588
589
590
591
592
593
594
595
596
597
598
599
600
601
602
603
604
605
606
607
608
609
610
611
612
613
614
615
616
617
618
619
620
621
622
623
624
625
626
627
628
629
630
631
632
633
634
635
636
637
638
639
640
641
642
643
644
645
646
647
648
649
650
651
652
653
654
655
656
657
658
659
660
661
662
663
664
665
666
667
668
669
670
671
672
673
674
675
676
677
678
679
680
681
682
683
684
685
686
687
688
689
690
691
692
693
694
695
696
697
698
699
700
701
702
703
704
705
706
707
708
709
710
711
712
713
714
715
716
717
718
719
720
721
722
723
724
725
726
727
728
729
730
731
732
733
734
735
736
737
738
739
740
741
742
743
744
745
746
747
748
749
750
751
752
753
754
755
756
757
758
759
760
761
762
763
764
765
766
767
768
769
770
771
772
773
774
775
776
777
778
779
780
781
782
783
784
785
786
787
788
789
790
791
792
793
794
795
796
797
798
799
800
801
802
803
804
805
806
807
808
809
810
811
812
813
814
815
816
817
818
819
820
821
822
823
824
825
826
827
828
829
830
831
832
833
834
835
836
837
838
839
840
841
842
843
844
845
846
847
848
849
850
851
852
853
854
855
856
857
858
859
860
861
862
863
864
865
866
867
868
869
870
871
872
873
874
875
876
877
878
879
880
881
882
883
884
885
886
887
888
889
890
891
892
893
894
895
896
897
898
899
900
901
902
903
904
905
906
907
908
909
910
911
912
913
914
915
916
917
918
919
920
921
922
923
924
925
926
927
928
929
930
931
932
933
934
935
936
937
938
939
940
941
942
943
944
945
946
947
948
949
950
951
952
953
954
955
956
957
958
959
960
961
962
963
964
965
966
967
968
969
970
971
972
973
974
975
976
977
978
979
980
981
982
983
984
985
986
987
988
989
990
991
992
993
994
995
996
997
998
999
1000
1001
1002
1003
1004
1005
1006
1007
1008
1009
1010
1011
1012
1013
1014
1015
1016
1017
1018
1019
1020
1021
1022
1023
1024
1025
1026
1027
1028
1029
1030
1031
1032
1033
1034
1035
1036
1037
1038
1039
1040
1041
1042
1043
1044
1045
1046
1047
1048
1049
1050
1051
1052
1053
1054
1055
1056
1057
1058
1059
1060
1061
1062
1063
1064
1065
1066
1067
1068
1069
1070
1071
1072
1073
1074
1075
1076
1077
1078
1079
1080
1081
1082
1083
1084
1085
1086
1087
1088
1089
1090
1091
1092
1093
1094
1095
1096
1097
1098
1099
1100
1101
1102
1103
1104
1105
1106
1107
1108
1109
1110
1111
1112
1113
1114
1115
1116
1117
1118
1119
1120
1121
1122
1123
1124
1125
1126
1127
1128
1129
1130
1131
1132
1133
1134
1135
1136
1137
1138
1139
1140
1141
1142
1143
1144
1145
1146
1147
1148
1149
1150
1151
1152
1153
1154
1155
1156
1157
1158
1159
1160
1161
1162
1163
1164
0.6290582780148457 0.3712840921258371 0
0.02547133540542473 0.6323529411764699 0
0.3984170332206585 0.9757330014378663 0
0.02326893714034489 0.4852960381575306 0
0.5437057379001511 0.9734381580461382 0
0.5487828996191325 0.2790650127032607 0
0.7270499341691143 0.4468292068904889 0
0.02917785194968336 0.3388431796891748 0
0.6617579225691704 0.9745333656132322 0
0.279411764705882 0.9745286645945754 0
0.2806290696178872 0.02334219541229948 0
0.9745489353882948 0.7209854132778717 0
0.5146127324163043 0.1949164360124675 0
0.8053728134455531 0.4853695874896787 0
0.02687460449936674 0.7497007819455817 0
0.0241670249791297 0.2209526826916318 0
0.7790247339840436 0.9758292527823675 0
0.1613431752272215 0.9723677880247109 0
0.1886145355650197 0.02540923588977895 0
0.9760009935062778 0.8070886342363996 0
0.9749456120042093 0.6330668150867739 0
0.3700037536745348 0.02667993976607191 0
0.02965837743447319 0.841406097623131 0
0.02907262383927711 0.1355546550620783 0
0.8643559431251377 0.9708914539102244 0
0.4852235661668102 0.1058795313302147 0
0.8947339381555061 0.5141764937687545 0
0.5882001466696619 0.3256091072081381 0
0.6743908927918636 0.4117998533303395 0
0.1029098636406641 0.02398451127942269 0
0.9759951083440952 0.8970899951409252 0
0.02547028259933176 0.3970505227296034 0
0.6029411764705874 0.9745286645945752 0
0.4853703939550183 0.9762423438102318 0
0.02407465509242579 0.5414277228488606 0
0.02392169269706634 0.6919782716534935 0
0.02519236401050173 0.2789830860794593 0
0.7205790255452363 0.9745298633965062 0
0.3373550431303712 0.9756446372095383 0
0.2205882352941175 0.9745286645945754 0
0.1029411766214663 0.9761302777637201 0
0.02443313467920072 0.8922705703854752 0
0.4258080428585998 0.02612999210172834 0
0.9716319522152644 0.5731485681096057 0
0.02547133540542457 0.07352941176470607 0
0.9264705882352939 0.9745286645945753 0
0.04398131078575584 0.974990212040316 0
0.473753289786554 0.04572343429378883 0
0.9557869221797913 0.5220842333422777 0
0.04424227535052278 0.02487083763543829 0
0.9751240306887002 0.955757719987797 0
0.6082635341624995 0.3500314939385372 0
0.6005260611303608 0.3778971642873704 0
0.6215551391616559 0.3992640072143229 0
0.5931684083509955 0.4067177030198418 0
0.5723266041078341 0.3853517789384291 0
0.5649833724155598 0.4142368472081031 0
0.5443687139308453 0.3936261895798656 0
0.5368751703236232 0.4219613076280258 0
0.5162516236628548 0.4013162488507344 0
0.5087142037076186 0.429507349479017 0
0.5293387868506279 0.4501307264065393 0
0.5011666825012836 0.4576844505924419 0
0.5218012243112364 0.4783113840727463 0
0.4936149901318603 0.4858703286153832 0
0.5142631635621364 0.5065088236567453 0
0.486059849443572 0.5140699267043438 0
0.4880939556849269 0.4088883449199975 0
0.5067180460860475 0.5347183146556466 0
0.4785007626323958 0.542282471810012 0
0.4578424027542715 0.5216268412859716 0
0.4502768347351944 0.5498510419478363 0
0.4991627567707051 0.5629339670994606 0
0.4296107244293456 0.5291839216684854 0
0.4220426221039076 0.5574212719058187 0
0.4013666521715358 0.5367469244025298 0
0.3937940329633595 0.5649967839562701 0
0.3731082018845296 0.5443084289017517 0
0.3655345788630208 0.5725733375497648 0
0.386228087750763 0.5932616225230798 0
0.3579594870055159 0.6008439354048297 0
0.3786633732895258 0.6215403769104911 0
0.3503827562667905 0.6291247570509894 0
0.3710962058297049 0.6498298699559925 0
0.3428033737514508 0.6574161566969143 0
0.3448412477377496 0.5518813021133117 0
0.3524191541498423 0.523611386113332 0
0.3241476152773637 0.5311841707883233 0
0.3317345541777221 0.5029458576925716 0
0.3635255634831478 0.6781299677030281 0
0.3352215500372157 0.6857160012991534 0
0.3144989101897548 0.6649979752168932 0
0.3069149689781074 0.6933102593275327 0
0.5273847545807343 0.5553672917919824 0
0.5198307836944492 0.5835914316629603 0
0.5480554948508317 0.5760187647886312 0
0.5405014395908805 0.6042515208483986 0
0.5688122712276403 0.5966984128215884 0
0.5611902508380947 0.624920027939276 0
0.5895696482952659 0.617358440465116 0
0.5818859480562154 0.645590783685966 0
0.6101944684397891 0.6380037755293613 0
0.6025646698353138 0.6662648748632408 0
0.6307985585141713 0.6586805779371783 0
0.6232421011746725 0.6869504240586011 0
0.6514972452623833 0.6793663241693765 0
0.5949720850786602 0.6945312180076447 0
0.3034510010705077 0.5104969999339233 0
0.3110421424333392 0.4822411771596503 0
0.3559504760794112 0.7064315038884501 0
0.6439441110811422 0.7076484672831798 0
0.6722175587486663 0.7000683311933423 0
0.2861792333267931 0.6725764377722427 0
0.2785958202669648 0.7009054316230099 0
0.2827435291486581 0.4897944444259717 0
0.2903257898512033 0.4614909437068435 0
0.6646592435557805 0.7283567143187472 0
0.6929547400176953 0.7207623899234754 0
0.2620287041424592 0.4690680813840353 0
0.2696166198747029 0.4407708263619501 0
0.2544439487671268 0.4973750398603984 0
0.7005265950191373 0.6924139564431393 0
0.7212896274505388 0.7131092719675424 0
0.7136951948839795 0.7414687774102364 0
0.74204102373242 0.7338293090461059 0
0.7496726199853938 0.7054378179195863 0
0.2578525910231668 0.6801621504642537 0
0.2502637670589862 0.7084978137939991 0
0.2710117201034637 0.7292401542857965 0
0.2426707141781653 0.7368357778618634 0
0.2979149709734061 0.4331880292465905 0
0.277216852801518 0.4124793114945566 0
0.305501273529409 0.4049000629174656 0
0.2848067538981698 0.384191385640641 0
0.3130850453083249 0.376618409246779 0
0.2923908517303402 0.3559030281596445 0
0.320736068245327 0.348424860114775 0
0.2999756759449125 0.3276280848629864 0
0.271674216710197 0.3352241204694094 0
0.2792679980678143 0.3068911332023442 0
0.3075580402282931 0.2993333990959043 0
0.2868584222250128 0.2785764388301701 0
0.2585393699162026 0.2861753859267427 0
0.2661418329215566 0.2578274457102103 0
0.2944682197423054 0.2502528646033348 0
0.2489034700159684 0.420112492813207 0
0.2634231907194961 0.7575797249726226 0
0.2350750583489225 0.7651811291187168 0
0.3842555158726235 0.6988440934103801 0
0.3766796160429614 0.727152331770068 0
0.734440757524063 0.7621953007389792 0
0.7628211252660286 0.7545221992940945 0
0.2378002189598608 0.2654316006546453 0
0.2454163301134061 0.237068579196523 0
0.638406776875676 0.6304516760071885 0
0.2295193507567532 0.6877557462359533 0
0.4049388616232233 0.7195474654797164 0
0.3974096643071712 0.7478669639353607 0
0.42566686630688 0.7402652559696314 0
0.4181442400251818 0.7686023348983579 0
0.4463976529245308 0.760989149899024 0
0.7552004682969546 0.7829215920531312 0
0.7268533448315324 0.7905426434076228 0
0.2170688595507291 0.2446480956217185 0
0.2094488332612 0.2730518461551666 0
0.7835623237555981 0.7752767708997246 0
0.224679884993931 0.2163027650529106 0
0.2558385217275777 0.7859352015662701 0
0.2274828722615411 0.7935359318872061 0
0.4388717378517842 0.7893293523590651 0
0.4671390296405811 0.7817168094791557 0
0.4105726287935973 0.7969141183075288 0
0.5763699802892945 0.5684672696475925 0
0.2067186738515824 0.7727780056971932 0
0.19912696117891 0.8011424545720199 0
0.1963245052901439 0.223884213108951 0
0.7759577307415017 0.8036659122480301 0
0.8043106208001589 0.7960469952056949 0
0.8119110339801787 0.7676486316757962 0
0.2039394057363616 0.1955259563456688 0
0.2324129401990124 0.1882193809879559 0
0.2371111351995358 0.6594148877286559 0
0.2087737355989036 0.6670094898565704 0
0.4596074994407218 0.8100629502953378 0
0.4878788695123612 0.8024472421477854 0
0.2482499178093773 0.8142898185387079 0
0.2163688286514975 0.6386664821705769 0
0.1880243075055349 0.6462602239999501 0
0.1956295737528717 0.6179446231108977 0
0.175570893643392 0.2031136447224058 0
0.7967221419285058 0.8244217358480379 0
0.3337978388703459 0.3973752871286066 0
0.1783554214899051 0.7803770213063438 0
0.1707594676474592 0.8087513488008374 0
0.8250848769125256 0.816800133517816 0
0.1831897907130406 0.1747443842757913 0
0.5122456949239935 0.6118184551262953 0
0.4956423942441829 0.3807166579233406 0
0.6137901461899864 0.4274193974320135 0
0.1672731077280875 0.6255129670875811 0
0.1749192415637915 0.5972354222530614 0
0.1596775663352496 0.6538692191034196 0
0.4803519202754741 0.8308047344944324 0
0.5086317115308111 0.8231848981814013 0
0.4674719813252506 0.3882675082482677 0
0.47502637011842 0.3600867411094826 0
0.453739150647928 0.7325331544249422 0
0.2766067389867538 0.8066889159953107 0
0.2690159083295566 0.835049306404153 0
0.8175015699868771 0.8451777809247836 0
0.7891318491254844 0.8527977009941601 0
0.8458707861042717 0.8375561353982671 0
0.1548145774428775 0.1823305034408008 0
0.1471957106334947 0.2107048511708267 0
0.1624331529630952 0.1539578171744167 0
0.1465239915163856 0.6047659164312554 0
0.1541644414100329 0.5764529539676453 0
0.5011105730544689 0.8515496180585702 0
0.5294550832602826 0.8439435520304525 0
0.4727691636380834 0.8591564468183975 0
0.5368402215789131 0.8155406057749686 0
0.5577784512228545 0.8363294408719392 0
0.1500044047977901 0.7879852533897675 0
0.1423835086936719 0.8163579746367612 0
0.1631638580764305 0.8371316324689916 0
0.3600644456375762 0.4954584638636566 0
0.1907197650216822 0.1464681073920046 0
0.853453705436623 0.8091725323171309 0
0.233720911775148 0.4766454768302219 0
0.316581503090308 0.5594700658658956 0
0.4599278014432738 0.416450658934808 0
0.5536110270582876 0.6531641409792046 0
0.3993602779513031 0.6422298571729159 0
0.4468438268805867 0.3676387012864555 0
0.4544008564019685 0.3394482885590467 0
0.2973757884333615 0.8274443223217881 0
0.4951913037880643 0.7739713841496908 0
0.6363665306142053 0.7359446417334959 0
0.1347777406551458 0.8447399710361758 0
0.2897827853441911 0.8558119073894235 0
0.3181468688566421 0.8482012882231469 0
0.2614296406956714 0.8634181174149445 0
0.1264314641764174 0.1899178652672784 0
0.8099167526186296 0.8735593542015353 0
0.5502310715238361 0.8646912049666405 0
0.5785775971003454 0.8570786572087559 0
0.7816462244520315 0.8810746572308047 0
0.1188145756709705 0.2182946975590441 0
0.1555621090156977 0.8655165936388858 0
0.1271727913346828 0.8731277776100728 0
0.8742467897730115 0.829930747966902 0
0.8666625336528049 0.8583191544944619 0
0.8818266171229907 0.8015424038907623 0
0.1700401836174179 0.1255952851754694 0
0.141665624940549 0.133167320365482 0
0.1984343810194032 0.1185061742366515 0
0.4262058574567349 0.3470012908706476 0
0.4337684193330355 0.3188098765263216 0
0.2240259264097458 0.6104253914645388 0
0.1257639956568992 0.5840034300347119 0
0.1333678169825402 0.5556437781321477 0
0.1576344315718072 0.7596404391636475 0
0.5860593351482771 0.8286421942577242 0
0.6069123393963551 0.8494546840648826 0
0.1216437092383776 0.7956074475147493 0
0.1181559923508342 0.6123578321226814 0
0.46195973896917 0.3112602819316023 0
0.4413311015003064 0.2906204184022713 0
0.4131297377786468 0.298164344050103 0
0.4206984968882486 0.2699645459558352 0
0.3105538739677832 0.8765750206657312 0
0.3389072913922824 0.8689576967135999 0
0.3691390455048235 0.7554704686542477 0
0.2261356461120022 0.5049551429773861 0
0.2054020690061068 0.4842255988205021 0
0.4935366567185095 0.879909164727102 0
0.4651854427464107 0.8875144132276079 0
0.5993269656732818 0.877696893726324 0
0.6276646162124879 0.870056360144045 0
0.6352717025845532 0.8418216296847497 0
0.6560520855612901 0.8625595119675008 0
0.4695190450215964 0.283085497558455 0
0.4186473871068012 0.3751996637112589 0
0.5424500014065448 0.498937241146438 0
0.1395798974616111 0.2390799009537563 0
0.1111997177313499 0.2466714610612329 0
0.1319668236867573 0.2674539942519706 0
0.76094276565626 0.8603055379170219 0
0.7542895497858629 0.889514423716748 0
0.4444212088077542 0.866756063659741 0
0.4427150798134846 0.5780735840432993 0
0.2937725474541218 0.6442634573870419 0
0.4372192976500551 0.5009919376885905 0
0.2468655129039603 0.5256834821822872 0
0.3924936347728892 0.277510652511322 0
0.400071467911763 0.2493006509940432 0
0.4282816928692968 0.2417546635446933 0
0.4076525410809214 0.2210736158052853 0
0.6570841017415421 0.756651360718602 0
0.3794142328916822 0.2286245906305511 0
0.3870563550314773 0.2003361638757855 0
0.4152535467349843 0.1928382757396177 0
0.3946042403238278 0.1721491694917956 0
0.3663676248483892 0.1796636661542158 0
0.3739422842432343 0.1514339871134595 0
0.3457213245782109 0.1589031061262588 0
0.3532696965130772 0.1306781902970468 0
0.3249492271433662 0.1382302396869703 0
0.3851238835290839 0.1214371108922878 0
0.3325622319899744 0.1099259928092077 0
0.3042199687842054 0.1174910187522251 0
0.8950438940255121 0.8506930036986239 0
0.8874605592682143 0.879088473785277 0
0.5032035955691215 0.352146549141112 0
0.3175193128375394 0.1662825310131461 0
0.1492915532479664 0.1047844825179818 0
0.120895243277274 0.1123700282463264 0
0.4368242285652501 0.8951194321914386 0
0.1034490363532556 0.2750088747725755 0
0.1243264346703369 0.2958213624824378 0
0.09738787112840486 0.5915882435613117 0
0.422839376930519 0.1646296104882188 0
0.6501440442291622 0.895304268176333 0
0.09804414664271666 0.1975076594871127 0
0.8024511584608447 0.9018253656412996 0
0.1063874707943396 0.8523470198032992 0
0.1479590069860017 0.8939073017952706 0
0.1763495461546754 0.8862937756655189 0
0.09878060873008992 0.8807401186016877 0
0.09580845548388661 0.3033741767161179 0
0.1167059571728539 0.3241862746145131 0
0.1450967747725624 0.316605160203753 0
0.137490232704952 0.3449646102839661 0
0.1658545470881385 0.337380937313482 0
0.1582493819750895 0.3657350729817849 0
0.1298884203552985 0.3733236038789252 0
0.1506426903443589 0.394090966108487 0
0.1229985064431278 0.4018726748452631 0
0.143150463893645 0.4224545957478384 0
0.1155295026864575 0.4302630548861429 0
0.135597324707797 0.4507763081595734 0
0.1866031244132175 0.3581471622319652 0
0.1073491078645786 0.4584594727004494 0
0.1025038139843154 0.3820912972875394 0
0.3979981613476842 0.3545578287272339 0
0.1714365971843603 0.4147981536493737 0
0.3257333828668311 0.8198323056932699 0
0.2011855780314605 0.6953589087128593 0
0.2917723562401727 0.7499807018390304 0
0.6287797574199099 0.7642482959269821 0
0.2185472962270893 0.5332752263465379 0
0.4160578932359125 0.8743588220993963 0
0.4084836696500784 0.9027147783075861 0
0.3312972805825 0.8973333022561684 0
0.6636343411214998 0.8342152776811629 0
0.1280147710465686 0.4789633137687005 0
0.09946040705357401 0.4867582966712545 0
0.6844127769563136 0.8549612075713404 0
0.3029482054338278 0.904951790764011 0
0.08730328833588591 0.4376617186041102 0
0.311845534947278 0.08916054977891863 0
0.2834870892139004 0.09672063530566155 0
0.2758593179050056 0.1250634822797608 0
0.08978199104001727 0.6199618047341547 0
0.4434729058999731 0.1853058423003308 0
0.42923009051082 0.9234910589325946 0
0.08373633964519422 0.2551401955818632 0
0.4859527321370495 0.9082736251363364 0
0.9158468692437431 0.8714605538579894 0
0.908259550507545 0.8998622719334088 0
0.8802674782720236 0.9089349827394708 0
0.1285209647537334 0.08398193700056888 0
0.1001192623951997 0.09157194955455955 0
0.0910458485034959 0.1195654208174943 0
0.06900639033150674 0.5991870104621069 0
0.07688762606007649 0.5718257640216802 0
0.3401980337866214 0.08160135823966452 0
0.451058932358342 0.1571154285816846 0
0.1942104166930744 0.3298028594811505 0
0.2149487780213927 0.3505612249655824 0
0.3904339231730531 0.3827674537520418 0
0.1618446587000352 0.5482144759293563 0
0.4900431268374741 0.3036897230783143 0
0.4971499018640131 0.2760720679790549 0
0.923432394499168 0.843059662511435 0
0.4124005873132285 0.6911631761442423 0
0.4769893325140137 0.2550092235548451 0
0.551839123520059 0.3638126684844388 0
0.8610320657326191 0.7807899467997994 0
0.8894036925456845 0.7731551589942854 0
0.8686162071118229 0.7523950838174405 0
0.8964812564278217 0.7446385316902927 0
0.8761204203607962 0.7239915678830418 0
0.9039557400357333 0.7162407107023416 0
0.8836586836057572 0.6956395412028051 0
0.8554144667733381 0.7032638958320313 0
0.8629856213678895 0.6749477344547623 0
0.8346999368445176 0.6825536410558426 0
0.8422662223718242 0.6542497277977753 0
0.8705556451247363 0.6466429874375286 0
0.8498322357753045 0.6259625274017531 0
0.8215627359725195 0.633563820173124 0
0.8291176820640411 0.6052998036253761 0
0.8008781945026915 0.6128940722934192 0
0.8781043187926373 0.6183513498370519 0
0.808414966623286 0.5846498819347047 0
0.7801914935665591 0.5922438269545348 0
0.7725420807490788 0.6204210747353947 0
0.7519503145166866 0.5997885209460415 0
0.7595142436308157 0.5715970007124168 0
0.7313045309757329 0.5791723552763273 0
0.7388453990562742 0.550965969933131 0
0.7106539133746682 0.5585420795194836 0
0.7237542603963361 0.607398823107781 0
0.718185674913036 0.5303455605697095 0
0.6900009590015487 0.5379127631194982 0
0.8366336251543093 0.5770530666430916 0
0.9123151910319806 0.6876912814972834 0
0.682465994975195 0.5661098660487064 0
0.6617668599485675 0.5455533242440896 0
0.6693481956019282 0.5173024067024438 0
0.6411829810301243 0.5248556993283106 0
0.6485000218682528 0.4966643256238439 0
0.6202364405884947 0.5041690076098355 0
0.9177771172119196 0.7655251216081804 0
0.746362330027343 0.5227800669860145 0
0.8159517011135466 0.5564330110596348 0
0.6768478311484076 0.4891146722731439 0
0.6557771492135653 0.4685187070065553 0
0.6331687196047524 0.5532301807278133 0
0.8271244290599395 0.7108690296239369 0
0.8063926432474908 0.690154294059816 0
0.1687477236115726 0.9146883071995173 0
0.1970451571241957 0.9067239763682335 0
0.1380075762311609 0.9257365815359138 0
0.08832736123552587 0.3317787257637387 0
0.6080537462202233 0.7435287269797766 0
0.6005186367343569 0.7717923245876668 0
0.5797461964335763 0.7511079770740643 0
0.8989802282836781 0.6387490088749868 0
0.9063432621095387 0.6104575504677243 0
0.8856249635815572 0.590022216959888 0
0.9139018964383048 0.5823903127821766 0
0.4303716823833497 0.1382712810665854 0
0.5143173346947143 0.9006636695168093 0
0.1105570026033434 0.6407325158285779 0
0.08217752925764338 0.6483405235162116 0
0.1029538260145563 0.6691151534252868 0
0.3296875669867599 0.6084191827200061 0
0.4110925714202772 0.4034202022563234 0
0.382873152064044 0.4109919003096944 0
0.4035351334138292 0.4316550719306974 0
0.1568783012945673 0.07638158926960065 0
0.4730088361971991 0.4652419547399409 0
0.3849139349354483 0.3057159155425525 0
0.2047144386938403 0.8786192986387029 0
0.2254547481179831 0.8989277654096508 0
0.2073382296074741 0.3788892320274782 0
0.213006705930853 0.4559417407253386 0
0.3642420870997189 0.2849524694811836 0
0.239299525120392 0.5539841653191566 0
0.8441380293336675 0.5488400133245186 0
0.3753207455986461 0.4392066117162999 0
0.3959805682004401 0.4598538471580462 0
0.2551549647481112 0.1042964239607422 0
0.2475478283371376 0.13241843596452 0
0.2684619899317583 0.1530869905702005 0
0.07828813684465996 0.8610627038966798 0
0.08167629198220977 0.8312464437382772 0
0.319942203050614 0.06094313540375873 0
0.7251890149564862 0.5026692810931175 0
0.2623887676869797 0.07629616801286265 0
0.2344470013271903 0.08347183123556973 0
0.2416017608010758 0.05541242515444911 0
0.5066849626481927 0.2451484834437265 0
0.5069782142740306 0.9284640382306247 0
0.5351396511318095 0.9213326417427103 0
0.755869160994356 0.493131955531097 0
0.0689597740858171 0.311489121435129 0
0.9006716494354632 0.9282669742949322 0
0.9282347918177878 0.9201136187153947 0
0.07171472585783095 0.09916280559890356 0
0.07987769614145906 0.07162687926078365 0
0.07508077459978912 0.676216096915061 0
0.09543964859662307 0.697416309704416 0
0.1237475575499106 0.6898765729824679 0
0.1161478049833733 0.7182381330522808 0
0.08776955880706827 0.7258681061275323 0
0.1445125811321059 0.7106461259391759 0
0.621454266784042 0.7925751201201096 0
0.3697902979248998 0.3619862776435684 0
0.7988151951086201 0.718469968616266 0
0.1891898584563842 0.9335294993004789 0
0.2225724879957652 0.3221951378759552 0
0.1846368292725532 0.4636286732287305 0
0.1770725689533749 0.4918178468469477 0
0.2356931526689599 0.3712864080111203 0
0.3251318477836121 0.9261528050968998 0
0.3521161663703374 0.9181099547158126 0
0.1603425321618241 0.259856667497645 0
0.1056644007402544 0.1691270027068728 0
0.07726988215879138 0.1767178040606615 0
0.830725086505725 0.8943046903311034 0
0.8231430813205036 0.9226943765830062 0
0.4236584972075673 0.8459979189933667 0
0.3952958349660318 0.8535960130527169 0
0.267596228648182 0.5464031538625362 0
0.2600172981486591 0.5746782782496331 0
0.2109739500603534 0.5615235321407718 0
0.4242004643345936 0.4522563448984401 0
0.1085372401868351 0.7466187843401599 0
0.08015469345831494 0.7542786370747677 0
0.5722562972422772 0.7794215395225315 0
0.5514901505024027 0.7586582062401264 0
0.5590219151304399 0.7303855214768011 0
0.5307634978346549 0.737927376388313 0
0.5383005423802112 0.7096705811451336 0
0.5100424782449449 0.717214236757459 0
0.517583770959103 0.6889610356195747 0
0.4893329747729043 0.6965026932392291 0
0.4968674095843477 0.6682593406248492 0
0.4686256079411894 0.6758135304565848 0
0.476162451265638 0.6475582570807316 0
0.9335789649993353 0.602617515891684 0
0.3566597904872171 0.3129645016716696 0
0.4479750979914523 0.6551456716713813 0
0.4556299061557929 0.6268642682155643 0
0.6917697658959807 0.8264373350335751 0
0.6710937527562125 0.8058183496161333 0
0.1410574446710418 0.5274064392307545 0
0.1129194429332934 0.5351518151877417 0
0.7125066479749235 0.8471847173423303 0
0.7055656010386675 0.8748591995193535 0
0.8933379526135157 0.5625536827896045 0
0.4824721218816691 0.225305811893296 0
0.06906500130566279 0.2091344804168958 0
0.04991790156273712 0.184086735851401 0
0.7958196771075779 0.9292008781775046 0
0.8166411161252601 0.9497780812782011 0
0.07158909402751379 0.8888477464422786 0
0.09115551712598957 0.9083954567511885 0
0.06264615425906722 0.9173741668437755 0
0.7757722495472191 0.5173531146081163 0
0.9442372755694126 0.8638296195530801 0
0.1361492746861321 0.0555897690274158 0
0.2140903414728616 0.06343231386374915 0
0.3984821360400787 0.9281062544926446 0
0.9208971665323442 0.5544069012894003 0
0.2965015628345188 0.9324908265180916 0
0.2748537133076467 0.9123319966250762 0
0.8240527662324375 0.5288050630979958 0
0.8489244321368682 0.5247450809601022 0
0.4711873412789369 0.1770459510556247 0
0.4752351214129035 0.1519558199100529 0
0.6844191575420856 0.4609581958048344 0
0.5182988182111409 0.2961696703693935 0
0.05289429934740641 0.5802711409546315 0
0.9305679441680899 0.7108653942400377 0
0.9445510979298167 0.6807884660959549 0
0.08758284122015869 0.9339369478335123 0
0.4786238676768469 0.9347477235800622 0
0.8441848129307188 0.9446819789921412 0
0.0552734192103676 0.1557373172537004 0
0.268065688901547 0.9451416071593637 0
0.05454302374785691 0.7323049616367093 0
0.04830056357142787 0.8698012676266378 0
0.05379077735723692 0.6559446615180939 0
0.06005782595732889 0.3376643929758944 0
0.4216336384127494 0.9518749151428164 0
0.951325524904881 0.8378892666006498 0
0.9313824585242153 0.8131989396847966 0
0.1645552754730383 0.04800017593600858 0
0.6431461829872425 0.4198435659470991 0
0.3492585687308177 0.04948619069601101 0
0.3685391284904062 0.0752194171484839 0
0.5370914266810575 0.2486076688887413 0
0.7528016784145893 0.462102121120606 0
0.6975352940122428 0.4340448425437415 0
0.5701269864028016 0.3025948287711482 0
0.5606955777141474 0.3326930821634215 0
0.4802490083113977 0.07625483299261626 0
0.4520379981826591 0.06708345108545888 0
0.4578925156189914 0.09661455698560018 0
0.4303179309640096 0.08450698989628158 0
0.9251432351112548 0.5237842916928666 0
0.3254462285668438 0.03197432815644707 0
0.5259417879455346 0.2209027851685416 0
0.2194198208349986 0.0320858799644565 0
0.05583980447626974 0.5500188071430264 0
0.04701734284017389 0.522166815549874 0
0.06968098437755504 0.526468063524288 0
0.06684610477766756 0.4986493758541889 0
0.05801213973311869 0.9486296593788495 0
0.02671197237564216 0.1645838819109507 0
0.05828245001314358 0.1261472348075737 0
0.034187354873219 0.1033554323689392 0
0.7795816867510347 0.4738167033655238 0
0.8354377322157056 0.9732398658829341 0
0.8737102438346334 0.9416772287850403 0
0.896833280983503 0.9658801591954219 0
0.6638070492194865 0.440367151394035 0
0.6347480119399711 0.4479768049412859 0
0.6063284882837048 0.45539700397732 0
0.5796020688554027 0.3547672934008159 0
0.5321512314602423 0.3422907501029883 0
0.4251723920144739 0.05522477481368049 0
0.3982583697202401 0.07247194414235636 0
0.3976441982953731 0.04469788367185196 0
0.4076706223887645 0.1011855774127141 0
0.3161378159217706 0.9541181007499039 0
0.2516415490052037 0.02676497273612155 0
0.3546306398962004 0.4185555518108315 0
0.3470446281774296 0.4467444036711442 0
0.5261759047644495 0.9491362648341828 0
0.5548112259594272 0.9429135794994774 0
0.5632890203519938 0.9139206211583459 0
0.5811445356361068 0.9348389232539339 0
0.573529411764705 0.9669228420056599 0
0.04145424480930426 0.6026411989783659 0
0.778069810156927 0.6977665345867121 0
0.7856090256592942 0.6694275214016483 0
0.7573033508247289 0.677024003550925 0
0.7288388337836841 0.684709756704954 0
0.7079586671604612 0.6640767155776846 0
0.7363823258588422 0.6563268080462453 0
0.715664786838822 0.6357394799814076 0
0.6871241184539174 0.6435807735209441 0
0.6951652199175113 0.6150740300808267 0
0.4838597789168917 0.6193157689109023 0
0.5251671810346573 0.6606898856279673 0
0.8195453227079234 0.7392080568317931 0
0.2018285192607485 0.3014367680927204 0
0.7957846310377195 0.5371061681611454 0
0.4611881786518993 0.7041090074529885 0
0.4628190509763722 0.2054278695493491 0
0.6506059781963287 0.3914834268272689 0
0.566598978956707 0.7020954985510149 0
0.8741343160843817 0.5377403703022305 0
0.4557051116445596 0.02294512757349154 0
0.9748118761543938 0.5436683579596262 0
0.2301965218293002 0.2937928392907965 0
0.5026227937400227 0.745512900242554 0
0.7038836594548222 0.4827085188013864 0
0.7911928081046053 0.7468649614327474 0
0.7649204385475171 0.6486895400719367 0
0.9754438373352201 0.604542559307741 0
0.181088984454999 0.2806403980811096 0
0.1521162031921945 0.6822868027061716 0
0.3262290639568926 0.4256896919391525 0
0.3186534402684111 0.4540340061073525 0
0.1902559038112435 0.540768097398133 0
0.4824716487630856 0.3318034452480862 0
0.8573899665193162 0.5976805216151786 0
0.5440292605887749 0.7870447021750824 0
0.7878142605948272 0.5642383256180596 0
0.8139770919259062 0.6618474957189069 0
0.4356583060595852 0.2134470222829278 0
0.4612119132985176 0.1271036222647481 0
0.9728448781912038 0.6626033311775138 0
0.9487054400554817 0.6476942177437651 0
0.9745344585249669 0.6926581332887529 0
0.9204358047507678 0.6587190956865673 0
0.152716933257651 0.2882370210309863 0
0.2433020118937714 0.3429509482120711 0
0.6972425558460381 0.5100088670932166 0
0.8402725274518613 0.76000851974225 0
0.6323487785129949 0.974532819734066 0
0.6470506326871759 0.9490733715198689 0
0.6764488525107981 0.9490686522241332 0
0.6617444814511918 0.9236138958774516 0
0.6903416346963379 0.92533128074759 0
0.6340023588429946 0.9234082749562255 0
0.7057259228820395 0.9493533661165524 0
0.7180094100585045 0.9238499437300163 0
0.6426572178084042 0.8134365213882913 0
0.02546821012284617 0.3676416456753149 0
0.05092905058359448 0.3823475298072999 0
0.05027090255103872 0.4105913173784757 0
0.07638453329128131 0.3970389155950191 0
0.0253656684001321 0.4262614615386417 0
0.05588035480189257 0.4409495138759471 0
0.02591033462530618 0.4558114814482915 0
0.04891086406177159 0.4744850684611016 0
0.179001888961108 0.3864871024974276 0
0.199802799341897 0.4071476686426616 0
0.5557396407032023 0.5476776017762707 0
0.5838181674185989 0.5402163982161862 0
0.6047377320377394 0.5608591819654221 0
0.6121547015241002 0.5325821941767054 0
0.6255743596232641 0.5815078728217371 0
0.591961375897561 0.5113355075005811 0
0.6539893153755055 0.573768188422037 0
0.5636175256632828 0.5190861904063514 0
0.5709879243301309 0.4909049684538012 0
0.5971791058496716 0.5891008522131546 0
0.4488816279315709 0.2624527026290651 0
0.02493836963087243 0.3079083409307166 0
0.2447158179937915 0.6310872123065113 0
0.5873331387736188 0.7228086771984187 0
0.3674405248709967 0.9750824187913717 0
0.3514029507593445 0.9480413559271085 0
0.3049652216759386 0.7990820848214186 0
0.3333036143571281 0.7914650386646482 0
0.3540443027274911 0.8121878368515807 0
0.3125277714218826 0.77071537324784 0
0.3464448419089811 0.8405515502513264 0
0.3616096049979068 0.7838229550382566 0
0.380697441581704 0.5160708213461549 0
0.7673488523156997 0.5440067743364806 0
0.1679564083139152 0.2314770818400923 0
0.6188258205802355 0.9495986542301894 0
0.4522599639695782 0.9725662293582387 0
0.183946496995494 0.857896017099263 0
0.2123087831813936 0.8502703153291997 0
0.02520638798710528 0.2499882860323652 0
0.04787909866383933 0.2314998570285722 0
0.05395514860001493 0.2608197329175266 0
0.749933476924717 0.9747471728638555 0
0.7632859231947344 0.9512175532348373 0
0.7351103874279385 0.9491900209466027 0
0.7499960418705441 0.9236008992215556 0
0.9745330883107868 0.750062450091363 0
0.9510543722443334 0.7320279887124075 0
0.9473234400300492 0.7637865480820155 0
0.9745510920933877 0.7791023805878238 0
0.691144110780619 0.974580874558404 0
0.02547088691414745 0.7205874584844385 0
0.9421562130483273 0.5748142459597916 0
0.2506358274533277 0.9734095922428834 0
0.2356089539352459 0.9482164231603433 0
0.7684650517454616 0.8319444327058225 0
0.1923802034815658 0.9755274906205577 0
0.5500128456166863 0.4705908319067906 0
0.02570487827017087 0.7793599315650273 0
0.05211486890804218 0.7650830341241076 0
0.04976862462916387 0.7943916326048539 0
0.02601240550190909 0.8093889871969787 0
0.05139142462738988 0.8230906148939285 0
0.07352410377311758 0.02430919332087245 0
0.9756583501555524 0.9264756898949036 0
0.1353705999980095 0.02745405338610979 0
0.9734404577874352 0.8662840707295062 0
0.1311628145344221 0.9750820160063445 0
0.1141305709243104 0.9496364646947522 0
0.07337145761544484 0.9764028558718174 0
0.03123571525345853 0.9233541915719454 0
0.4068801497047946 0.6138890777989998 0
0.5458923332274419 0.6813983237612176 0
0.3877596982227524 0.8819712872016137 0
0.1859884827862511 0.7520349348103853 0
0.7704354303923324 0.726148465149252 0
0.8652098088811246 0.5689816452724186 0
0.8326722771341251 0.7884178755371511 0
0.1915390678533976 0.8295169825882454 0
0.5650239837819045 0.8078062051111929 0
0.2841889667953036 0.7783303337404154 0
0.3200820644228755 0.7423590538822726 0
0.2993430133606069 0.7216404819478811 0
0.3917912691263774 0.6705263305902095 0
0.173466029254529 0.3090171907005337 0
0.2737485588278542 0.2295032581593397 0
0.3021048871233259 0.222050854215365 0
0.3227723694596069 0.242718821427814 0
0.3305557148164372 0.214781340250406 0
0.281440160136691 0.2013794025208332 0
0.3151622819754982 0.2710248594402342 0
0.3434851831823442 0.2634167664707114 0
0.535028855333658 0.5270492439055724 0
0.2654491597921644 0.651835018892351 0
0.273065248713535 0.6235273216736656 0
0.7061820941338672 0.7697271258785512 0
0.523799289081598 0.3731757380157632 0
0.3415009911726042 0.3693357242343329 0
0.07586390644984409 0.2828978364134561 0
0.2143379130937418 0.7444333434100435 0
0.1080710151518606 0.06429319761233337 0
0.1195692015771564 0.9015181401783814 0
0.646219443630407 0.6020710335689741 0
0.9355536112064333 0.8919128618499429 0
0.4089746480434101 0.5085586945780708 0
0.4520177811350865 0.8384049231348653 0
0.1777120098476203 0.09741657191826159 0
0.113349773712658 0.82391486797284 0
0.06696913366435542 0.7051116241589465 0
0.9026883030488891 0.8220560399544059 0
0.4031806435709059 0.1454313023866063 0
0.1340484554627632 0.1615414937639156 0
0.1611457497798175 0.9430825320987346 0
0.8382854672761413 0.8659357117110398 0
0.5574712489435205 0.4424323943150785 0
0.09214521645367213 0.2271504885982232 0
0.2115538598887841 0.1674607683625881 0
0.4576347579406493 0.9155672031059301 0
0.9087989284724288 0.793232583822479 0
0.06028037803352226 0.6264046900642338 0
0.07638301484357779 0.3632339151909918 0
0.1053657443361914 0.5644566898231569 0
0.6768383623512434 0.8833320703656899 0
0.1978234785663714 0.51253461727963 0
0.2219368358210903 0.7160933131678175 0
0.1085498000494207 0.3532630711699458 0
0.7476672794805143 0.8112227535149854 0
0.2822358283105791 0.8841441426461092 0
0.1313188066547449 0.661500730972161 0
0.5218875074444601 0.8723030906136386 0
0.2751646578422915 0.5180857592497148 0
0.4029283387226774 0.825256814520902 0
0.7030613521980498 0.586719966233988 0
0.1389222685202641 0.6331031860153135 0
0.4144603573836682 0.5856288534158883 0
0.3372740909586106 0.5801513591057557 0
0.615651952157087 0.7152353592101861 0
0.2413216237160866 0.4483827928398951 0
0.3220862992567141 0.6366989513288686 0
0.470937735076097 0.5704757148698196 0
0.5426743254149494 0.8930613343822571 0
0.6144068951395145 0.8210674745997593 0
0.6853972302746123 0.7490508814492792 0
0.1887050205054686 0.2522597170507805 0
0.5044773249967024 0.6400141706905195 0
0.8914885290274681 0.6670649415256555 0
0.4558503553720846 0.2338995489090294 0
0.2530904944629292 0.2089358076553096 0
0.4805538974720072 0.4370615337653154 0
0.5742979475413811 0.6738345577775706 0
0.362182250515715 0.3902147001449601 0
0.5329249500960002 0.6324818949943332 0
0.2967509183267347 0.1456328866088023 0
0.3608857680475356 0.1023825268301071 0
0.4654377790547069 0.4934357655562492 0
0.5856240018054796 0.4348140576602068 0
0.3013954779716662 0.6159924523874184 0
0.1130363003419438 0.140685970798078 0
0.1804349126137835 0.6746118679918327 0
0.3276451709398319 0.7140243329423489 0
0.5903665340065576 0.9058789294102914 0
0.8591486116091944 0.8869449341327326 0
0.4055621725370357 0.3263610820832715 0
0.7932482612261679 0.6411405873990716 0
0.4317447009608222 0.4240324675473394 0
0.2911621172204059 0.06858856698260835 0
0.2198946389766432 0.8218921007316458 0
0.8478488955776136 0.7316226922884156 0
0.09365781411032942 0.8025392585851685 0
0.4392880448561686 0.3958348669974088 0
0.5707442523451607 0.8853879401421024 0
0.2883057341110569 0.5670782110687281 0
0.172858647024984 0.7030137653841265 0
0.08342871682799946 0.1479967917407302 0
0.8518632190787998 0.9165396985939157 0
0.4511847381217626 0.9431085669718718 0
0.4312760805252391 0.8176610129351776 0
0.4915658035735258 0.5911155615947417 0
0.2406627135388066 0.8426615552540491 0
0.3282276683281737 0.320070713378851 0
0.295874456673285 0.5387863934615202 0
0.6496178888413696 0.784974403653514 0
0.3483852433783735 0.7347503387621921 0
0.2330695125570083 0.8709455125106693 0
0.3773851714010259 0.3338109023832476 0
0.2539534082438942 0.8915681665836239 0
0.3358314570154265 0.2918508662134705 0
0.2509254344021751 0.3145382608295532 0
0.6779303134560886 0.7773341304549466 0
0.3408412240138317 0.7630972047082428 0
0.2640718240683591 0.3635552752146386 0
0.4523861664265299 0.4446427606981849 0
0.3089942360781598 0.587739456897001 0
0.2564881532399413 0.3918370959032712 0
0.1936089335667655 0.7236993165905178 0
0.6797146488181076 0.6717817059436786 0
0.2281203549061311 0.3995165252304078 0
0.3898696338644167 0.7761962877192639 0
0.3718690795804652 0.256768213365789 0
0.3510496039833109 0.2353361866655457 0
0.6589628828907466 0.6510947550568559 0
0.1652573194380041 0.7313169538867992 0
0.2807006762837679 0.5953215344270975 0
0.4448312734319939 0.4728227577021166 0
0.1369052319464956 0.7389503463246964 0
0.1638592492905123 0.4430641487987574 0
0.1292914561483089 0.7672724559432027 0
0.1562529268620001 0.4713110417676458 0
0.2523771817192362 0.6029040403490871 0
0.3823156055027521 0.8045227765463565 0
0.1012929258273114 0.7745097224695693 0
0.2316607662700212 0.5822110843801671 0
0.4165977472299917 0.4804033089871284 0
0.3883387348252365 0.4879688115741279 0
0.2205811279850625 0.4277516164171894 0
0.3747135229532356 0.8328847393722716 0
0.2032956385065564 0.5897416264873011 0
0.3595584256347225 0.8896556115713306 0
0.3676855281095874 0.4673469881506681 0
0.1825756390086689 0.5689893513627116 0
0.367116244459021 0.8612626120634136 0
0.3802430355736511 0.9102551733617996 0
0.4633178391003732 0.5986327326737879 0
0.3393640462181957 0.4748497909207339 0
0.8338575305394009 0.5002531177693263 0
0.4350830414171062 0.606227289532044 0
0.1696450126340228 0.5199956055966235 0
0.666796611752277 0.6227075749867605 0
0.6178573004523457 0.6097489417675885 0
0.226795794546171 0.1114251798911483 0
0.6272451609191225 0.4759990032198415 0
0.4198638224668397 0.6628572922716094 0
0.1922205515008731 0.4353886669103419 0
0.02525300453114443 0.6623937551447932 0
0.1859028877943416 0.07064803648893386 0
0.427454972265016 0.634517314427324 0
0.4405097746518655 0.6834956009840626 0
0.7442023678178804 0.6280607078148012 0
0.4330543175841459 0.7118616056468751 0
0.4818950442979338 0.7248648235906979 0
0.4744974958398434 0.7532647036310107 0
0.5233334327429144 0.7663125934687286 0
0.3490499979265413 0.3410988299044074 0
0.5159329425133119 0.7947570725324232 0
0.1489003424411168 0.4994227166066686 0
0.6746163229748242 0.5944084432235488 0
0.5932865691383954 0.8002174763664973 0
0.9477457049909788 0.9444831784586853 0
0.5782478762175045 0.4629138078511558 0
0.3590313866105016 0.2075878740104057 0
0.6989136331187681 0.7978653469149972 0
0.05551638168217465 0.05219467804729816 0
0.1209266452152933 0.5066235740041691 0
0.5115570031725389 0.3223045855140215 0
0.7196813598309116 0.8185794747774637 0
0.5990627483255055 0.4833435907937377 0
0.7404026871941494 0.8393178184468485 0
0.4998126883024537 0.1666351671703266 0
0.7331422991984623 0.8677911339676918 0
0.3383764018246226 0.1868523341563566 0
0.3098904895141658 0.1942270384343502 0
0.07762502114922842 0.4661605743611753 0
0.2893701954906016 0.1736364954614537 0
0.2458840425945252 0.9203236858951034 0
0.260850954468449 0.1810916653414383 0
0.2399098232991144 0.160273514467045 0
0.2191602420187154 0.1394253633856596 0
0.6186687950562288 0.8991241987004797 0
0.2062304026679314 0.09081668460571901 0
0.5142174203853943 0.9754635632668739 0
0.7745761108736213 0.9089387127384638 0
0.9514096160165816 0.7934198515710669 0
0.7256390803237922 0.8952402400543084 0
0.9265947911414124 0.630025713690353 0
0.0254634259562192 0.955698093742312 0
0.02451114260194859 0.04401249928013262 0
0.9559797925487263 0.9754888044789058 0
0.920997415933424 0.9472563671307357 0
0.0527505056454865 0.07884590244280554 0
0.3846738143994135 0.9515146390735896 0
0.542417443094514 0.3089748448946351 0
0.217367743060834 0.9257561564325621 0
0.0744818359026897 0.7832701510588396 0
0.02444713852720626 0.1933409445644047 0
0.8067586499672303 0.9754868950207152 0
0.02261560386202144 0.8676470588235292 0
0.3005952389142096 0.04129150419163052 0
0.9484045608735625 0.5486510997255947 0
0.9245266450196578 0.7388473825058792 0
0.271336417207627 0.04861597208166191 0
0.04914914667853387 0.2937533202851501 0
0.4342485726188786 0.1112211846932689 0
0.02592112414557146 0.5745144104965363 0
0.4250503624147146 0.9800348291877843 0
0.9768938055573557 0.8358915360145674 0
0.1624139645601548 0.02017269304237945 0
0.2058021068320934 0.9521676119291993 0
0.3080477432435081 0.9777703305900154 0
0.7289976035551171 0.4752228931534398 0
0.9533876012576339 0.910427669842355 0
0.04842942562902841 0.6824528726254 0
0.08956804305670207 0.04653065048302113 0
0.4969923393916428 0.953617008133993 0
0.09388573854891391 0.5145852110193865 0
0.09747654763409735 0.4107818358740777 0
0.5216016018047074 0.2690125806768354 0
0.02224923747344532 0.5135278029082621 0
0.3843143694293693 0.09429419113337212 0
0.9016493216994006 0.5385323479685713 0
0.9520820441234581 0.6194985824163755 0
0.3975147283774663 0.0195015631079305 0
0.6988047258357757 0.9014603652055416 0
0.4879920845473935 0.1971794121944421 0
0.1100891414157552 0.9238447181987497 0
0.8039900306277405 0.5121707212439019 0
0.6064833195592508 0.9277216348102234 0
0.3739589535707611 0.05072243972194551 0
0.4931572743306764 0.1315466167041885 0
0.8695977125174392 0.5065491409043803 0
0.08584051370352042 0.54728386311689 0
0.07011145260253354 0.8074536205528871 0
0.04309523300771506 0.2078029401105811 0
0.7899427418325263 0.9525334623442862 0
0.0589838469279434 0.845814162343413 0
0.04632194327007721 0.3186431375978986 0
0.04810073542477866 0.358292905439658 0
0.04800636612388509 0.898185053547267 0
0.3058788100363152 0.01907730801968677 0
0.4787807427639801 0.02175533425616855 0
0.9787810597025879 0.520606082983798 0
0.04362171303537282 0.7058822413167921 0
0.1956221738023234 0.0481631995721431 0
0.01782982098600655 0.6029411764705874 0
0.1403395941813753 0.9529366844458984 0
0.2932662485503416 0.956210871083887 0
0.02153090610496683 0.02153090610496655 0
0.9784690938950327 0.9784690938950329 0
0.02153090610496711 0.9784690938950327 0
0.0724025380366124 0.4195201579220218 0
0.6764342665461091 0.9061494568162918 0
0.9569778915625173 0.8833804522820967 0
0.1175091979509365 0.04277544337741612 0
0.5035407378878188 0.2166905857424947 0
0.4711864301423188 0.9572337719147861 0
0.9550513616511004 0.7074650791230049 0
0.04165849725868065 0.4988250201861915 0
0.1796776467644129 0.9554474374666786 0
0.9546692712226997 0.5936789728229044 0
0.7069248776841204 0.4596577844125277 0
0.5958918732333818 0.9534808283102213 0
0.7858859407715186 0.4963721824499178 0
0.371373865050148 0.9304986357510574 0
0.3460023704263454 0.02098701180778151 0
0.4447412038407342 0.04389523864608524 0
0.9303068290536747 0.7846156413357033 0
0.4121598873229594 0.1240761634422917 0
0.08771097981882581 0.9577895651605248 0
0.954734685625211 0.8149967210262463 0
0.07011483430295135 0.236579089929923 0
0.7739413654523106 0.9307994230888401 0
$EndNodes
$Elements
6 2326 1 2326
1 1 1 34
1 1 6 
2 6 7 
3 7 8 
4 8 9 
5 9 10 
6 10 11 
7 11 12 
8 12 13 
9 13 14 
10 14 15 
11 15 16 
12 16 17 
13 17 18 
14 18 19 
15 19 20 
16 20 21 
17 21 22 
18 22 23 
19 23 24 
20 24 25 
21 25 26 
22 26 27 
23 27 28 
24 28 29 
25 29 30 
26 30 31 
27 31 32 
28 32 33 
29 33 34 
30 34 35 
31 35 36 
32 36 37 
33 37 38 
34 38 2 
1 2 1 34
35 3 39 
36 39 40 
37 40 41 
38 41 42 
39 42 43 
40 43 44 
41 44 45 
42 45 46 
43 46 47 
44 47 48 
45 48 49 
46 49 50 
47 50 51 
48 51 52 
49 52 53 
50 53 54 
51 54 55 
52 55 56 
53 56 57 
54 57 58 
55 58 59 
56 59 60 
57 60 61 
58 61 62 
59 62 63 
60 63 64 
61 64 65 
62 65 66 
63 66 67 
64 67 68 
65 68 69 
66 69 70 
67 70 71 
68 71 1 
1 3 1 17
69 4 72 
70 72 73 
71 73 74 
72 74 75 
73 75 76 
74 76 77 
75 77 78 
76 78 79 
77 79 80 
78 80 81 
79 81 82 
80 82 83 
81 83 84 
82 84 85 
83 85 86 
84 86 87 
85 87 3 
1 4 1 27
86 4 88 
87 88 89 
88 89 90 
89 90 91 
90 91 92 
91 92 93 
92 93 94 
93 94 95 
94 95 96 
95 96 97 
96 97 98 
97 98 99 
98 99 100 
99 100 101 
100 101 102 
101 102 103 
102 103 104 
103 104 105 
104 105 106 
105 106 107 
106 107 108 
107 108 109 
108 109 110 
109 110 111 
110 111 112 
111 112 113 
112 113 5 
1 5 1 17
113 2 114 
114 114 115 
115 115 116 
116 116 117 
117 117 118 
118 118 119 
119 119 120 
120 120 121 
121 121 122 
122 122 123 
123 123 124 
124 124 125 
125 125 126 
126 126 127 
127 127 128 
128 128 129 
129 129 5 
2 1 2 2197
130 132 1084 698 
131 135 1085 685 
132 718 1097 164 
133 686 1097 718 
134 174 1080 1056 
135 698 980 841 
136 841 1098 698 
137 1052 1081 175 
138 698 1084 676 
139 685 1110 135 
140 42 729 41 
141 36 725 35 
142 503 978 724 
143 728 979 500 
144 121 717 120 
145 1056 1083 174 
146 627 830 739 
147 175 1082 1052 
148 806 925 808 
149 1058 1085 734 
150 688 789 788 
151 722 875 671 
152 144 856 694 
153 489 1066 810 
154 721 1066 486 
155 139 858 693 
156 92 1123 1029 
157 131 924 696 
158 1062 1122 109 
159 875 1131 671 
160 691 728 154 
161 699 871 673 
162 153 724 692 
163 154 727 691 
164 674 870 701 
165 704 1121 736 
166 554 1093 853 
167 53 747 52 
168 692 723 153 
169 850 1077 418 
170 699 1099 871 
171 788 790 688 
172 858 859 693 
173 799 801 452 
174 870 1100 701 
175 1029 1123 681 
176 707 730 158 
177 41 729 175 
178 736 1121 737 
179 684 730 707 
180 694 864 144 
181 853 1093 852 
182 174 725 36 
183 683 1122 1062 
184 120 717 148 
185 152 1128 695 
186 724 725 611 
187 724 978 692 
188 609 729 728 
189 691 979 728 
190 628 830 627 
191 503 724 611 
192 609 728 500 
193 517 734 709 
194 78 790 77 
195 810 1066 812 
196 660 1124 1108 
197 709 733 517 
198 171 1090 695 
199 725 1083 611 
200 486 1108 721 
201 748 1097 686 
202 695 1090 152 
203 714 1092 677 
204 812 1066 721 
205 609 1082 729 
206 1108 1124 720 
207 695 1131 171 
208 739 830 168 
209 748 1137 1097 
210 808 925 473 
211 154 729 42 
212 121 740 717 
213 803 1077 850 
214 35 725 153 
215 857 1092 173 
216 734 1085 709 
217 155 1122 787 
218 155 787 712 
219 806 1130 925 
220 696 1038 131 
221 685 1085 1058 
222 604 716 705 
223 52 747 162 
224 134 747 53 
225 748 924 131 
226 185 733 182 
227 767 1123 156 
228 173 1092 769 
229 801 1072 452 
230 171 1131 875 
231 722 1079 875 
232 722 874 176 
233 722 1161 874 
234 735 737 172 
235 744 747 134 
236 178 1092 714 
237 856 1135 694 
238 158 730 702 
239 77 790 788 
240 141 790 78 
241 708 1085 135 
242 706 726 607 
243 712 713 711 
244 151 1115 737 
245 702 765 158 
246 970 1094 1091 
247 746 747 744 
248 743 744 134 
249 689 1118 873 
250 846 1163 496 
251 688 791 789 
252 418 1075 850 
253 737 1121 151 
254 873 1161 689 
255 693 1139 139 
256 43 727 154 
257 737 1115 172 
258 710 712 711 
259 452 1144 799 
260 182 733 181 
261 153 723 34 
262 517 733 185 
263 598 1128 867 
264 169 859 858 
265 547 950 791 
266 810 1143 489 
267 44 727 43 
268 34 723 33 
269 180 1081 1052 
270 701 1100 148 
271 496 903 846 
272 1056 1080 179 
273 641 864 694 
274 156 1113 767 
275 665 1163 845 
276 873 1118 564 
277 689 1161 722 
278 102 181 157 
279 104 708 135 
280 98 707 158 
281 705 716 106 
282 90 714 156 
283 112 710 177 
284 710 711 177 
285 1062 1117 682 
286 867 1125 598 
287 787 1122 683 
288 681 1123 767 
289 564 1138 873 
290 845 1126 665 
291 148 1136 701 
292 845 1163 846 
293 181 733 157 
294 517 901 734 
295 734 901 443 
296 703 1157 151 
297 176 1079 722 
298 697 1130 137 
299 677 1113 714 
300 130 765 183 
301 1091 1094 140 
302 174 1083 725 
303 791 950 569 
304 729 1082 175 
305 547 791 688 
306 683 1062 682 
307 698 1098 132 
308 604 1147 716 
309 438 1112 738 
310 867 1128 152 
311 552 1035 558 
312 164 719 718 
313 736 1112 704 
314 730 731 702 
315 558 731 730 
316 680 1119 1029 
317 680 1029 681 
318 157 733 709 
319 153 725 724 
320 558 1035 731 
321 728 729 154 
322 859 1068 693 
323 815 897 822 
324 705 1110 604 
325 137 1129 697 
326 757 937 543 
327 907 1050 1032 
328 607 1103 706 
329 183 765 702 
330 721 1108 720 
331 713 735 711 
332 559 818 551 
333 817 818 559 
334 101 181 102 
335 103 708 104 
336 97 707 98 
337 105 705 106 
338 755 757 543 
339 100 765 130 
340 551 818 553 
341 158 765 99 
342 96 706 136 
343 95 726 706 
344 89 714 90 
345 559 819 817 
346 111 710 112 
347 142 1117 1062 
348 107 716 142 
349 143 726 94 
350 459 903 448 
351 1039 1073 911 
352 1099 1162 149 
353 787 1096 712 
354 92 1029 93 
355 738 1160 438 
356 755 1042 754 
357 816 820 818 
358 816 822 820 
359 392 1051 946 
360 717 740 603 
361 108 1062 109 
362 815 822 816 
363 822 897 413 
364 413 823 822 
365 543 1042 755 
366 984 1047 266 
367 774 968 750 
368 413 862 823 
369 548 821 549 
370 302 824 227 
371 589 991 896 
372 443 1058 734 
373 553 1035 552 
374 140 740 122 
375 122 740 121 
376 804 946 619 
377 783 884 350 
378 151 1121 703 
379 804 986 658 
380 642 884 783 
381 1003 1004 429 
382 986 993 658 
383 608 903 459 
384 448 903 496 
385 925 1130 697 
386 619 986 804 
387 818 820 553 
388 699 1162 1099 
389 896 1004 1003 
390 896 1003 589 
391 654 991 589 
392 719 720 718 
393 921 1071 1070 
394 1070 1071 595 
395 984 991 654 
396 251 752 252 
397 549 821 559 
398 902 955 321 
399 537 968 774 
400 741 778 321 
401 1032 1050 757 
402 255 751 749 
403 511 1024 346 
404 620 955 902 
405 742 779 778 
406 752 754 751 
407 742 778 741 
408 229 1033 231 
409 321 955 741 
410 820 1060 553 
411 821 1050 907 
412 817 824 302 
413 754 774 751 
414 227 824 229 
415 254 880 281 
416 751 774 750 
417 946 1051 619 
418 255 752 751 
419 251 753 752 
420 281 880 773 
421 746 1154 747 
422 281 773 295 
423 252 752 255 
424 654 1047 984 
425 333 1048 350 
426 559 821 819 
427 623 992 793 
428 664 1147 604 
429 675 1073 1039 
430 713 736 735 
431 300 1045 366 
432 571 881 663 
433 326 949 758 
434 288 1043 336 
435 819 824 817 
436 793 992 268 
437 749 880 255 
438 896 991 895 
439 706 1103 136 
440 779 1028 238 
441 762 838 672 
442 663 881 767 
443 282 770 294 
444 664 951 764 
445 780 1024 511 
446 272 770 282 
447 294 770 761 
448 295 773 308 
449 255 880 254 
450 764 951 786 
451 361 877 759 
452 760 795 308 
453 949 956 759 
454 761 776 294 
455 877 954 766 
456 758 982 326 
457 326 956 949 
458 308 773 760 
459 714 1113 156 
460 784 838 762 
461 795 972 520 
462 824 1033 229 
463 757 1050 937 
464 832 994 836 
465 719 721 720 
466 759 956 361 
467 275 1001 998 
468 361 954 877 
469 793 995 626 
470 251 1000 753 
471 803 850 849 
472 475 1037 1010 
473 336 1043 763 
474 427 786 426 
475 553 1060 1035 
476 74 775 173 
477 753 754 752 
478 828 941 566 
479 629 948 776 
480 600 794 772 
481 544 794 600 
482 236 828 766 
483 760 972 795 
484 803 849 802 
485 366 1045 771 
486 802 849 167 
487 23 811 133 
488 786 951 426 
489 546 782 532 
490 995 998 626 
491 766 954 236 
492 545 794 544 
493 713 738 736 
494 711 1158 177 
495 822 823 820 
496 770 992 623 
497 776 948 294 
498 810 812 811 
499 532 782 530 
500 335 781 443 
501 998 1001 626 
502 777 933 331 
503 811 812 133 
504 556 784 762 
505 758 949 652 
506 431 786 427 
507 528 785 531 
508 782 881 571 
509 128 768 172 
510 173 769 73 
511 836 994 402 
512 527 785 528 
513 245 779 238 
514 535 784 556 
515 350 1048 783 
516 776 889 792 
517 571 663 572 
518 236 941 828 
519 761 889 776 
520 754 1042 774 
521 788 789 150 
522 129 768 128 
523 73 769 72 
524 24 811 23 
525 753 755 754 
526 742 1028 779 
527 128 172 127 
528 74 173 73 
529 271 895 270 
530 587 814 813 
531 76 788 150 
532 776 792 629 
533 663 677 572 
534 167 855 802 
535 364 781 335 
536 507 683 682 
537 150 775 75 
538 478 886 834 
539 771 1045 1044 
540 507 787 683 
541 895 991 270 
542 507 682 494 
543 451 494 431 
544 821 907 819 
545 680 681 591 
546 525 526 524 
547 936 981 634 
548 522 524 523 
549 834 885 478 
550 531 532 530 
551 556 680 591 
552 535 556 546 
553 527 528 526 
554 477 977 963 
555 451 507 494 
556 534 782 571 
557 615 933 777 
558 528 531 530 
559 409 946 804 
560 568 828 566 
561 522 525 524 
562 528 530 529 
563 539 838 784 
564 600 607 555 
565 672 838 555 
566 189 901 187 
567 556 591 546 
568 544 600 555 
569 892 896 895 
570 533 535 532 
571 555 838 541 
572 636 985 976 
573 550 794 545 
574 513 685 512 
575 535 546 532 
576 558 684 557 
577 25 809 24 
578 195 897 198 
579 587 813 471 
580 809 811 24 
581 518 795 520 
582 891 892 274 
583 629 792 416 
584 544 555 541 
585 244 935 250 
586 805 806 161 
587 530 782 534 
588 659 1031 511 
589 411 513 512 
590 471 813 464 
591 256 898 242 
592 796 797 138 
593 274 895 271 
594 260 779 245 
595 525 527 526 
596 540 541 539 
597 539 784 536 
598 750 968 785 
599 75 775 74 
600 534 571 570 
601 815 816 302 
602 126 151 125 
603 76 150 75 
604 783 1048 1046 
605 411 512 396 
606 756 757 755 
607 187 901 517 
608 323 883 354 
609 536 784 535 
610 561 785 527 
611 520 522 521 
612 552 558 557 
613 558 730 684 
614 50 796 138 
615 749 750 561 
616 750 785 561 
617 552 557 550 
618 542 544 541 
619 484 804 658 
620 538 539 536 
621 26 805 161 
622 509 793 626 
623 413 897 195 
624 963 977 777 
625 579 974 969 
626 892 895 274 
627 225 815 302 
628 797 840 801 
629 682 764 494 
630 213 888 219 
631 301 981 936 
632 264 321 262 
633 891 893 892 
634 753 756 755 
635 349 910 332 
636 796 840 797 
637 28 826 137 
638 531 533 532 
639 516 604 513 
640 242 898 421 
641 520 972 522 
642 319 839 343 
643 749 751 750 
644 149 854 81 
645 533 536 535 
646 56 841 163 
647 831 832 476 
648 362 888 213 
649 396 781 364 
650 851 852 141 
651 646 766 644 
652 276 885 297 
653 59 829 132 
654 77 788 76 
655 646 877 766 
656 48 855 167 
657 556 762 680 
658 235 1005 1000 
659 237 935 244 
660 650 759 648 
661 268 995 793 
662 759 877 648 
663 798 855 138 
664 397 411 396 
665 656 758 652 
666 816 818 817 
667 813 814 475 
668 370 835 401 
669 509 626 587 
670 645 646 644 
671 538 540 539 
672 335 443 327 
673 305 839 319 
674 426 825 399 
675 522 523 521 
676 736 737 735 
677 849 850 848 
678 365 831 476 
679 463 471 464 
680 484 658 657 
681 508 509 471 
682 262 778 260 
683 478 885 276 
684 623 793 509 
685 409 804 484 
686 266 902 264 
687 647 648 646 
688 216 837 207 
689 304 883 323 
690 844 846 166 
691 551 552 550 
692 549 550 545 
693 976 985 359 
694 207 837 205 
695 806 808 807 
696 540 542 541 
697 461 463 462 
698 847 849 848 
699 575 938 933 
700 802 855 798 
701 387 396 364 
702 643 644 568 
703 684 772 557 
704 778 779 260 
705 806 807 161 
706 388 827 316 
707 261 262 260 
708 243 887 258 
709 530 534 529 
710 831 834 832 
711 162 796 51 
712 865 867 866 
713 466 475 468 
714 649 650 648 
715 137 805 27 
716 225 302 227 
717 542 545 544 
718 354 883 842 
719 223 815 225 
720 827 899 898 
721 466 813 475 
722 509 587 471 
723 332 910 313 
724 464 813 466 
725 414 629 416 
726 321 778 262 
727 355 837 216 
728 425 426 399 
729 316 827 311 
730 615 777 618 
731 866 867 152 
732 703 704 506 
733 11 866 152 
734 168 830 829 
735 969 974 360 
736 432 451 431 
737 890 891 274 
738 571 572 570 
739 847 848 146 
740 162 840 796 
741 307 882 324 
742 449 461 460 
743 524 547 523 
744 651 652 650 
745 512 781 396 
746 222 887 243 
747 463 508 471 
748 816 817 302 
749 416 792 449 
750 81 854 80 
751 288 336 290 
752 528 529 526 
753 831 885 834 
754 797 799 798 
755 28 137 27 
756 50 138 49 
757 52 162 51 
758 54 134 53 
759 278 515 286 
760 845 846 844 
761 797 798 138 
762 581 639 593 
763 644 828 568 
764 839 948 629 
765 318 388 316 
766 541 838 539 
767 745 975 965 
768 343 839 414 
769 26 161 25 
770 56 163 55 
771 851 853 852 
772 423 636 590 
773 965 975 407 
774 463 464 462 
775 508 623 509 
776 797 801 799 
777 842 843 585 
778 218 355 216 
779 166 826 29 
780 161 809 25 
781 655 656 652 
782 59 132 58 
783 23 133 22 
784 365 476 370 
785 331 963 777 
786 560 561 527 
787 79 851 141 
788 30 844 166 
789 354 842 378 
790 518 520 519 
791 461 462 460 
792 337 831 365 
793 167 849 847 
794 57 841 56 
795 832 836 833 
796 933 938 331 
797 265 266 264 
798 449 792 461 
799 615 618 616 
800 643 645 644 
801 168 829 60 
802 327 901 189 
803 481 634 419 
804 300 366 314 
805 145 845 844 
806 390 511 346 
807 707 1153 684 
808 311 898 256 
809 198 897 223 
810 457 842 585 
811 249 260 245 
812 645 647 646 
813 320 860 306 
814 378 842 457 
815 566 941 367 
816 333 350 348 
817 832 833 476 
818 463 889 508 
819 492 596 595 
820 414 839 629 
821 144 864 863 
822 12 866 11 
823 411 516 513 
824 607 672 555 
825 577 615 614 
826 21 164 20 
827 470 1012 485 
828 51 796 50 
829 411 825 516 
830 864 865 863 
831 351 884 392 
832 792 889 461 
833 416 449 448 
834 27 805 26 
835 652 949 650 
836 414 416 415 
837 263 264 262 
838 350 884 351 
839 46 847 146 
840 457 585 563 
841 29 826 28 
842 799 800 798 
843 269 270 267 
844 273 274 271 
845 898 899 421 
846 351 392 375 
847 231 284 233 
848 647 649 648 
849 30 166 29 
850 48 167 47 
851 186 919 188 
852 825 951 516 
853 494 786 431 
854 60 829 59 
855 219 888 278 
856 508 889 761 
857 252 255 254 
858 430 431 427 
859 61 168 60 
860 80 851 79 
861 621 749 561 
862 766 828 644 
863 357 518 382 
864 241 251 247 
865 549 551 550 
866 421 961 943 
867 167 847 47 
868 297 885 337 
869 478 887 886 
870 273 890 274 
871 449 460 459 
872 308 882 307 
873 606 745 744 
874 704 958 506 
875 484 657 487 
876 123 140 122 
877 79 141 78 
878 340 860 320 
879 343 414 377 
880 636 637 590 
881 138 855 49 
882 409 484 410 
883 649 651 650 
884 376 417 340 
885 516 951 664 
886 551 553 552 
887 481 635 634 
888 145 844 31 
889 795 882 308 
890 170 873 872 
891 144 863 13 
892 13 863 12 
893 753 1000 756 
894 585 586 563 
895 209 939 876 
896 31 844 30 
897 397 825 411 
898 516 664 604 
899 277 904 259 
900 565 930 925 
901 18 131 17 
902 387 397 396 
903 807 810 809 
904 464 466 465 
905 438 915 434 
906 615 616 614 
907 390 659 511 
908 537 538 536 
909 393 409 408 
910 520 521 519 
911 479 566 367 
912 417 860 340 
913 524 950 547 
914 419 910 349 
915 249 261 260 
916 514 700 699 
917 651 655 652 
918 322 879 303 
919 466 468 467 
920 211 876 362 
921 160 871 84 
922 567 568 566 
923 117 870 159 
924 84 871 83 
925 422 959 200 
926 258 887 478 
927 863 866 12 
928 118 870 117 
929 14 856 144 
930 272 992 770 
931 476 835 370 
932 577 933 615 
933 16 165 15 
934 1016 1021 638 
935 761 770 623 
936 648 877 646 
937 884 1051 392 
938 374 945 934 
939 165 856 15 
940 120 148 119 
941 82 149 81 
942 250 935 423 
943 573 787 507 
944 421 943 221 
945 47 847 46 
946 169 858 64 
947 391 879 322 
948 32 145 31 
949 46 146 45 
950 468 470 469 
951 63 858 139 
952 63 139 62 
953 171 875 8 
954 8 875 7 
955 15 856 14 
956 80 854 851 
957 147 861 66 
958 65 169 64 
959 193 862 413 
960 65 861 169 
961 14 144 13 
962 64 858 63 
963 35 153 34 
964 43 154 42 
965 827 898 311 
966 159 868 116 
967 180 869 86 
968 117 159 116 
969 85 160 84 
970 85 869 160 
971 66 861 65 
972 67 872 147 
973 115 868 179 
974 116 868 115 
975 67 147 66 
976 11 152 10 
977 37 174 36 
978 41 175 40 
979 170 872 68 
980 68 872 67 
981 86 869 85 
982 176 874 70 
983 69 170 68 
984 9 171 8 
985 69 874 170 
986 115 179 114 
987 87 180 86 
988 70 874 69 
989 71 176 70 
990 49 855 48 
991 414 415 377 
992 324 882 357 
993 625 1012 624 
994 581 969 639 
995 800 803 802 
996 416 448 415 
997 621 880 749 
998 745 746 744 
999 209 876 211 
1000 681 767 591 
1001 449 459 448 
1002 211 362 213 
1003 546 881 782 
1004 183 702 328 
1005 865 866 863 
1006 436 958 438 
1007 376 418 417 
1008 350 351 348 
1009 470 485 472 
1010 309 921 310 
1011 258 478 276 
1012 392 393 375 
1013 203 422 200 
1014 642 643 568 
1015 518 519 382 
1016 378 457 456 
1017 443 901 327 
1018 337 365 338 
1019 842 883 843 
1020 346 1024 330 
1021 365 370 369 
1022 461 889 463 
1023 481 878 635 
1024 242 421 221 
1025 457 563 562 
1026 187 517 185 
1027 514 914 700 
1028 337 885 831 
1029 303 904 277 
1030 278 888 515 
1031 223 897 815 
1032 191 862 193 
1033 286 288 287 
1034 278 286 279 
1035 925 930 473 
1036 492 957 596 
1037 934 945 574 
1038 557 794 550 
1039 525 560 527 
1040 597 598 455 
1041 193 413 195 
1042 217 218 216 
1043 223 225 224 
1044 807 809 161 
1045 188 919 191 
1046 518 882 795 
1047 383 911 385 
1048 352 391 322 
1049 312 316 311 
1050 382 914 380 
1051 297 337 315 
1052 317 318 316 
1053 370 401 400 
1054 616 640 617 
1055 464 465 462 
1056 548 549 545 
1057 198 223 202 
1058 406 419 349 
1059 446 503 502 
1060 460 565 459 
1061 329 330 318 
1062 499 500 442 
1063 447 481 419 
1064 484 487 410 
1065 288 290 289 
1066 657 661 487 
1067 219 278 239 
1068 215 216 207 
1069 357 882 518 
1070 409 410 408 
1071 598 912 455 
1072 606 945 745 
1073 285 311 256 
1074 575 577 576 
1075 261 263 262 
1076 280 900 253 
1077 483 628 627 
1078 689 722 671 
1079 810 811 809 
1080 577 614 613 
1081 345 346 330 
1082 197 327 189 
1083 423 590 480 
1084 395 575 493 
1085 458 670 669 
1086 264 902 321 
1087 529 950 526 
1088 445 911 383 
1089 457 562 456 
1090 800 802 798 
1091 678 679 488 
1092 879 904 303 
1093 508 761 623 
1094 344 356 325 
1095 425 427 426 
1096 380 914 441 
1097 466 467 465 
1098 501 582 445 
1099 670 689 671 
1100 225 227 226 
1101 324 357 341 
1102 503 611 502 
1103 389 390 346 
1104 441 514 498 
1105 250 423 403 
1106 383 385 356 
1107 499 609 500 
1108 334 335 327 
1109 666 692 631 
1110 479 567 566 
1111 357 382 380 
1112 611 612 502 
1113 686 718 505 
1114 325 921 309 
1115 633 691 668 
1116 943 961 578 
1117 468 469 467 
1118 290 300 299 
1119 323 354 353 
1120 674 701 582 
1121 499 610 609 
1122 319 343 342 
1123 266 1047 902 
1124 446 502 501 
1125 514 699 673 
1126 504 505 450 
1127 670 671 669 
1128 309 310 296 
1129 339 340 320 
1130 379 455 368 
1131 498 499 442 
1132 851 854 853 
1133 300 314 313 
1134 203 909 422 
1135 563 622 562 
1136 833 835 476 
1137 237 238 218 
1138 470 472 469 
1139 295 308 307 
1140 634 910 419 
1141 446 501 445 
1142 562 564 456 
1143 384 446 445 
1144 458 669 597 
1145 227 229 228 
1146 501 674 582 
1147 606 744 743 
1148 616 617 614 
1149 314 333 332 
1150 666 723 692 
1151 669 695 597 
1152 269 271 270 
1153 441 498 442 
1154 354 378 368 
1155 453 665 631 
1156 378 456 379 
1157 343 377 372 
1158 337 338 315 
1159 412 579 510 
1160 451 573 507 
1161 441 442 381 
1162 365 369 338 
1163 458 597 455 
1164 514 673 498 
1165 282 294 293 
1166 691 727 668 
1167 574 606 605 
1168 581 593 592 
1169 640 641 617 
1170 363 364 335 
1171 251 252 247 
1172 333 348 347 
1173 560 621 561 
1174 633 667 454 
1175 379 458 455 
1176 373 376 340 
1177 370 400 369 
1178 292 900 280 
1179 378 379 368 
1180 1029 1119 143 
1181 665 666 631 
1182 291 292 280 
1183 298 303 277 
1184 405 574 497 
1185 482 878 481 
1186 837 909 205 
1187 485 486 472 
1188 351 375 374 
1189 444 957 437 
1190 633 668 667 
1191 404 588 358 
1192 406 447 419 
1193 354 368 353 
1194 890 894 891 
1195 265 267 266 
1196 453 630 372 
1197 286 287 279 
1198 567 642 568 
1199 243 258 257 
1200 678 693 679 
1201 278 279 239 
1202 453 920 665 
1203 579 581 580 
1204 401 483 400 
1205 645 771 647 
1206 565 697 608 
1207 229 231 230 
1208 285 312 311 
1209 890 952 894 
1210 373 632 454 
1211 384 445 383 
1212 447 482 481 
1213 344 383 356 
1214 395 938 575 
1215 312 317 316 
1216 393 946 409 
1217 460 930 565 
1218 492 595 594 
1219 533 537 536 
1220 642 783 643 
1221 393 408 407 
1222 521 554 519 
1223 317 329 318 
1224 453 631 630 
1225 575 576 493 
1226 577 613 576 
1227 288 289 287 
1228 380 441 381 
1229 323 353 352 
1230 329 345 330 
1231 764 786 494 
1232 357 380 341 
1233 100 130 101 
1234 448 496 415 
1235 353 394 352 
1236 263 265 264 
1237 632 633 454 
1238 215 217 216 
1239 390 660 659 
1240 883 971 843 
1241 244 245 238 
1242 679 932 488 
1243 323 352 322 
1244 641 694 617 
1245 344 384 383 
1246 206 209 208 
1247 617 913 614 
1248 104 135 105 
1249 343 372 342 
1250 614 913 613 
1251 458 906 670 
1252 538 543 540 
1253 223 224 202 
1254 900 947 253 
1255 191 919 862 
1256 290 299 289 
1257 96 136 97 
1258 248 249 245 
1259 377 453 372 
1260 526 950 524 
1261 612 905 502 
1262 649 763 651 
1263 380 381 341 
1264 220 221 214 
1265 345 389 346 
1266 297 298 277 
1267 582 911 445 
1268 339 373 340 
1269 386 387 364 
1270 276 297 277 
1271 410 452 408 
1272 369 371 338 
1273 297 315 298 
1274 217 237 218 
1275 304 322 303 
1276 258 276 259 
1277 502 905 501 
1278 304 323 322 
1279 465 930 462 
1280 99 765 100 
1281 504 686 505 
1282 590 638 480 
1283 373 454 376 
1284 440 492 491 
1285 834 994 832 
1286 499 908 610 
1287 565 608 459 
1288 102 157 103 
1289 423 480 403 
1290 441 914 514 
1291 399 825 397 
1292 342 344 325 
1293 98 158 99 
1294 379 906 458 
1295 439 958 436 
1296 564 906 456 
1297 356 921 325 
1298 426 951 825 
1299 498 908 499 
1300 456 906 379 
1301 314 332 313 
1302 276 277 259 
1303 393 407 375 
1304 225 226 224 
1305 483 488 400 
1306 447 495 482 
1307 606 743 605 
1308 501 905 674 
1309 661 662 487 
1310 702 731 328 
1311 605 690 497 
1312 462 930 460 
1313 347 349 332 
1314 300 313 299 
1315 249 275 261 
1316 324 341 339 
1317 483 627 488 
1318 319 342 325 
1319 542 548 545 
1320 333 347 332 
1321 298 304 303 
1322 467 473 465 
1323 495 676 482 
1324 389 926 390 
1325 437 957 440 
1326 627 739 678 
1327 234 236 232 
1328 574 605 497 
1329 243 256 242 
1330 243 257 256 
1331 246 367 240 
1332 673 908 498 
1333 405 406 349 
1334 317 331 329 
1335 258 259 257 
1336 257 285 256 
1337 627 678 488 
1338 613 696 576 
1339 504 748 686 
1340 675 717 603 
1341 213 219 214 
1342 472 489 469 
1343 285 477 312 
1344 324 339 320 
1345 219 239 220 
1346 602 675 603 
1347 345 395 389 
1348 351 374 348 
1349 423 935 636 
1350 209 211 210 
1351 287 402 279 
1352 227 228 226 
1353 549 559 551 
1354 201 420 204 
1355 283 952 890 
1356 495 698 676 
1357 299 301 289 
1358 130 181 101 
1359 398 399 397 
1360 197 334 327 
1361 283 890 273 
1362 199 200 196 
1363 395 493 450 
1364 772 794 557 
1365 219 220 214 
1366 562 917 564 
1367 490 506 439 
1368 222 243 242 
1369 211 213 212 
1370 222 242 221 
1371 694 913 617 
1372 455 912 368 
1373 914 923 700 
1374 404 624 588 
1375 519 923 382 
1376 319 325 309 
1377 368 912 353 
1378 188 191 190 
1379 305 309 296 
1380 493 504 450 
1381 293 296 283 
1382 347 405 349 
1383 599 703 506 
1384 446 962 503 
1385 405 497 406 
1386 395 450 389 
1387 229 230 228 
1388 212 578 210 
1389 237 244 238 
1390 136 707 97 
1391 638 780 480 
1392 305 319 309 
1393 293 305 296 
1394 635 936 634 
1395 157 708 103 
1396 436 438 434 
1397 415 920 377 
1398 282 293 283 
1399 353 912 394 
1400 307 324 320 
1401 404 625 624 
1402 295 307 306 
1403 95 706 96 
1404 244 248 245 
1405 565 925 697 
1406 310 952 296 
1407 213 214 212 
1408 281 295 291 
1409 547 688 687 
1410 622 917 562 
1411 575 933 577 
1412 424 425 399 
1413 500 966 442 
1414 130 183 182 
1415 412 974 579 
1416 428 479 367 
1417 282 283 273 
1418 505 926 450 
1419 231 232 230 
1420 860 931 306 
1421 231 233 232 
1422 382 923 914 
1423 473 930 465 
1424 295 306 291 
1425 307 320 306 
1426 371 988 983 
1427 206 208 207 
1428 281 291 280 
1429 220 222 221 
1430 377 920 453 
1431 773 880 621 
1432 534 570 569 
1433 209 210 208 
1434 204 205 203 
1435 206 207 205 
1436 208 215 207 
1437 390 926 660 
1438 254 281 280 
1439 650 949 759 
1440 204 206 205 
1441 106 716 107 
1442 554 923 519 
1443 201 203 200 
1444 581 592 580 
1445 342 916 344 
1446 244 250 248 
1447 198 202 199 
1448 372 916 342 
1449 211 212 210 
1450 630 916 372 
1451 268 269 267 
1452 215 359 217 
1453 94 726 95 
1454 403 404 358 
1455 344 916 384 
1456 272 273 271 
1457 272 282 273 
1458 230 361 228 
1459 248 942 249 
1460 334 363 335 
1461 184 185 182 
1462 785 968 531 
1463 291 931 292 
1464 487 927 410 
1465 479 619 567 
1466 135 705 105 
1467 186 187 185 
1468 341 918 339 
1469 339 918 373 
1470 226 326 224 
1471 201 204 203 
1472 373 918 632 
1473 205 909 203 
1474 569 950 529 
1475 492 594 491 
1476 430 432 431 
1477 496 920 415 
1478 195 198 196 
1479 194 583 192 
1480 587 1001 814 
1481 579 580 510 
1482 250 403 358 
1483 405 934 574 
1484 193 195 194 
1485 381 918 341 
1486 254 280 253 
1487 183 328 184 
1488 252 254 253 
1489 916 962 384 
1490 435 444 437 
1491 198 199 196 
1492 241 247 246 
1493 630 962 916 
1494 406 922 447 
1495 348 934 347 
1496 191 193 192 
1497 188 189 187 
1498 374 934 348 
1499 199 201 200 
1500 233 235 234 
1501 602 603 601 
1502 450 926 389 
1503 241 246 240 
1504 235 241 240 
1505 904 929 259 
1506 186 188 187 
1507 381 966 918 
1508 190 197 189 
1509 188 190 189 
1510 246 428 367 
1511 130 182 181 
1512 887 964 886 
1513 918 966 632 
1514 294 948 293 
1515 305 948 839 
1516 250 358 248 
1517 363 386 364 
1518 410 927 452 
1519 235 240 234 
1520 233 234 232 
1521 1023 1028 742 
1522 576 924 493 
1523 269 272 271 
1524 690 922 497 
1525 195 196 194 
1526 592 741 580 
1527 592 742 741 
1528 588 942 358 
1529 497 922 406 
1530 183 184 182 
1531 252 253 247 
1532 400 932 369 
1533 257 929 285 
1534 662 927 487 
1535 184 186 185 
1536 574 945 606 
1537 259 929 257 
1538 369 932 371 
1539 375 975 374 
1540 265 268 267 
1541 447 922 495 
1542 594 602 601 
1543 692 978 631 
1544 191 192 190 
1545 193 194 192 
1546 387 398 397 
1547 760 773 621 
1548 493 924 504 
1549 504 924 748 
1550 392 946 393 
1551 249 942 275 
1552 899 961 421 
1553 594 601 491 
1554 585 988 586 
1555 285 929 477 
1556 270 984 267 
1557 488 932 400 
1558 634 981 910 
1559 480 928 403 
1560 157 709 708 
1561 633 979 691 
1562 306 931 291 
1563 696 924 576 
1564 363 412 386 
1565 293 948 305 
1566 197 360 334 
1567 731 732 328 
1568 206 939 209 
1569 358 942 248 
1570 412 510 474 
1571 403 928 404 
1572 347 934 405 
1573 971 983 843 
1574 490 599 506 
1575 404 928 625 
1576 329 938 345 
1577 945 975 745 
1578 591 881 546 
1579 221 943 214 
1580 312 963 317 
1581 331 938 329 
1582 317 963 331 
1583 345 938 395 
1584 547 687 523 
1585 477 963 312 
1586 298 971 304 
1587 384 962 446 
1588 304 971 883 
1589 677 857 572 
1590 531 968 533 
1591 780 928 480 
1592 440 491 490 
1593 420 939 204 
1594 560 760 621 
1595 599 715 703 
1596 398 584 424 
1597 440 957 492 
1598 745 965 746 
1599 204 939 206 
1600 398 424 399 
1601 584 654 589 
1602 234 941 236 
1603 540 937 542 
1604 374 975 945 
1605 386 967 387 
1606 296 952 283 
1607 440 490 439 
1608 442 966 381 
1609 412 474 386 
1610 208 940 215 
1611 437 440 439 
1612 222 964 887 
1613 239 964 220 
1614 220 964 222 
1615 210 940 208 
1616 510 620 474 
1617 214 943 212 
1618 367 941 240 
1619 534 569 529 
1620 777 977 618 
1621 212 943 578 
1622 543 937 540 
1623 578 940 210 
1624 506 958 439 
1625 236 954 232 
1626 215 940 359 
1627 598 973 912 
1628 202 944 199 
1629 533 968 537 
1630 315 971 298 
1631 432 915 451 
1632 201 944 420 
1633 922 980 495 
1634 107 142 108 
1635 93 143 94 
1636 522 972 525 
1637 572 653 570 
1638 247 947 246 
1639 690 980 922 
1640 425 429 427 
1641 579 969 581 
1642 253 947 247 
1643 542 937 548 
1644 636 976 637 
1645 199 944 201 
1646 962 978 503 
1647 240 941 234 
1648 584 589 424 
1649 246 947 428 
1650 969 996 639 
1651 434 915 432 
1652 437 439 436 
1653 983 988 843 
1654 200 959 196 
1655 232 954 230 
1656 186 960 919 
1657 429 430 427 
1658 500 979 966 
1659 230 954 361 
1660 313 981 299 
1661 371 983 338 
1662 228 956 226 
1663 910 981 313 
1664 912 973 394 
1665 631 978 630 
1666 407 975 375 
1667 361 956 228 
1668 226 956 326 
1669 194 959 583 
1670 190 953 197 
1671 433 434 432 
1672 580 955 510 
1673 632 979 633 
1674 196 959 194 
1675 387 967 398 
1676 328 960 184 
1677 435 437 436 
1678 326 982 224 
1679 1000 1005 756 
1680 192 953 190 
1681 583 953 192 
1682 224 982 202 
1683 732 960 328 
1684 630 978 962 
1685 184 960 186 
1686 435 436 434 
1687 430 433 432 
1688 433 435 434 
1689 935 985 636 
1690 474 967 386 
1691 299 981 301 
1692 197 953 360 
1693 495 980 698 
1694 510 955 620 
1695 656 1027 758 
1696 966 979 632 
1697 741 955 580 
1698 525 972 560 
1699 124 1157 715 
1700 202 982 944 
1701 479 986 619 
1702 217 985 237 
1703 402 987 279 
1704 315 983 971 
1705 237 985 935 
1706 601 970 491 
1707 767 881 591 
1708 964 987 886 
1709 398 967 584 
1710 893 1004 892 
1711 363 974 412 
1712 491 970 490 
1713 334 974 363 
1714 338 983 315 
1715 110 155 111 
1716 90 156 91 
1717 819 1033 824 
1718 490 970 599 
1719 360 974 334 
1720 231 1033 284 
1721 763 1043 1041 
1722 451 915 573 
1723 239 987 964 
1724 241 1000 251 
1725 560 972 760 
1726 843 988 585 
1727 428 986 479 
1728 359 985 217 
1729 402 994 987 
1730 269 992 272 
1731 279 987 239 
1732 267 984 266 
1733 572 857 653 
1734 394 1015 1011 
1735 907 1033 819 
1736 656 1030 1027 
1737 988 990 586 
1738 879 1006 999 
1739 402 1002 836 
1740 474 989 967 
1741 584 989 654 
1742 879 999 904 
1743 275 998 261 
1744 679 990 932 
1745 265 995 268 
1746 388 1013 827 
1747 932 990 371 
1748 112 177 113 
1749 88 178 89 
1750 155 710 111 
1751 1010 1037 624 
1752 967 989 584 
1753 287 1002 402 
1754 301 1002 289 
1755 900 993 947 
1756 987 994 886 
1757 620 989 474 
1758 270 991 984 
1759 961 997 578 
1760 428 993 986 
1761 178 714 89 
1762 996 1008 639 
1763 268 992 269 
1764 624 1012 1010 
1765 886 994 834 
1766 425 1003 429 
1767 468 1010 470 
1768 371 990 988 
1769 961 1007 997 
1770 616 1009 640 
1771 1049 1057 485 
1772 947 993 428 
1773 355 1018 837 
1774 155 712 710 
1775 589 1003 424 
1776 233 1005 235 
1777 388 1021 1016 
1778 940 997 359 
1779 929 999 477 
1780 263 995 265 
1781 359 997 976 
1782 394 1011 352 
1783 477 999 977 
1784 301 1014 1002 
1785 261 998 263 
1786 658 1055 657 
1787 1030 1040 876 
1788 578 997 940 
1789 360 996 969 
1790 422 1008 959 
1791 999 1006 977 
1792 263 998 995 
1793 626 1001 587 
1794 583 996 953 
1795 953 996 360 
1796 330 1021 318 
1797 424 1003 425 
1798 904 999 929 
1799 355 1028 1023 
1800 422 1017 1008 
1801 997 1007 976 
1802 289 1002 287 
1803 391 1006 879 
1804 235 1000 241 
1805 391 1009 1006 
1806 590 1016 638 
1807 1014 1020 833 
1808 483 1022 628 
1809 657 1059 661 
1810 1055 1059 657 
1811 1001 1019 814 
1812 892 1004 896 
1813 583 1008 996 
1814 836 1014 833 
1815 238 1028 218 
1816 942 1019 275 
1817 763 1044 336 
1818 893 1054 1004 
1819 1011 1015 640 
1820 284 1005 233 
1821 909 1018 1017 
1822 1009 1011 640 
1823 1012 1049 485 
1824 417 1063 1061 
1825 511 1031 780 
1826 888 1036 515 
1827 726 1155 607 
1828 1006 1009 618 
1829 1044 1045 336 
1830 1002 1014 836 
1831 1007 1013 637 
1832 592 1023 742 
1833 899 1013 1007 
1834 732 1060 1053 
1835 814 1037 475 
1836 774 1042 537 
1837 131 1038 17 
1838 16 1038 165 
1839 618 1009 616 
1840 1008 1017 639 
1841 977 1006 618 
1842 939 1030 876 
1843 401 1025 1022 
1844 1041 1043 515 
1845 475 1010 468 
1846 594 1034 602 
1847 582 1039 911 
1848 827 1013 899 
1849 982 1027 944 
1850 909 1017 422 
1851 899 1007 961 
1852 959 1008 583 
1853 973 1015 394 
1854 976 1007 637 
1855 548 1050 821 
1856 286 1043 288 
1857 676 1026 482 
1858 936 1020 1014 
1859 1059 1061 661 
1860 352 1011 391 
1861 1010 1012 470 
1862 537 1042 538 
1863 275 1019 1001 
1864 780 1031 928 
1865 388 1016 1013 
1866 756 1032 757 
1867 771 1046 366 
1868 758 1027 982 
1869 936 1014 301 
1870 1019 1037 814 
1871 637 1016 590 
1872 1017 1018 593 
1873 1022 1025 878 
1874 640 1015 641 
1875 833 1020 835 
1876 1046 1048 366 
1877 835 1025 401 
1878 771 1044 647 
1879 649 1044 763 
1880 290 1045 300 
1881 638 1024 780 
1882 1020 1025 835 
1883 639 1017 593 
1884 482 1026 878 
1885 134 1074 743 
1886 391 1011 1009 
1887 318 1021 388 
1888 593 1023 592 
1889 355 1023 1018 
1890 1064 1065 444 
1891 763 1041 651 
1892 362 1040 1036 
1893 656 1040 1030 
1894 837 1018 909 
1895 588 1019 942 
1896 783 1046 643 
1897 635 1020 936 
1898 645 1046 771 
1899 635 1025 1020 
1900 401 1022 483 
1901 314 1048 333 
1902 893 1064 1054 
1903 330 1024 1021 
1904 878 1025 635 
1905 907 1032 284 
1906 659 1049 1031 
1907 1022 1026 628 
1908 852 1093 687 
1909 218 1028 355 
1910 642 1051 884 
1911 588 1037 1019 
1912 177 1158 768 
1913 1067 1069 596 
1914 944 1027 420 
1915 1005 1032 756 
1916 781 1058 443 
1917 921 1070 310 
1918 1036 1040 655 
1919 1027 1030 420 
1920 1013 1016 637 
1921 567 1051 642 
1922 876 1040 362 
1923 651 1041 655 
1924 93 1029 143 
1925 420 1030 939 
1926 928 1031 625 
1927 595 1034 594 
1928 284 1033 907 
1929 731 1035 732 
1930 902 1047 620 
1931 362 1036 888 
1932 1021 1024 638 
1933 937 1050 548 
1934 911 1073 385 
1935 685 1058 512 
1936 862 1053 823 
1937 919 1053 862 
1938 1018 1023 593 
1939 878 1026 1022 
1940 659 1057 1049 
1941 1036 1041 515 
1942 624 1037 588 
1943 17 1038 16 
1944 701 1039 582 
1945 655 1040 656 
1946 620 1047 989 
1947 429 1054 430 
1948 538 1042 543 
1949 900 1055 993 
1950 515 1043 286 
1951 1034 1073 602 
1952 417 1061 860 
1953 284 1032 1005 
1954 993 1055 658 
1955 732 1053 960 
1956 647 1044 649 
1957 1004 1054 429 
1958 435 1064 444 
1959 336 1045 290 
1960 894 1065 891 
1961 693 1068 679 
1962 957 1067 596 
1963 1053 1060 823 
1964 472 1066 489 
1965 595 1071 1034 
1966 655 1041 1036 
1967 643 1046 645 
1968 310 1069 952 
1969 385 1071 356 
1970 366 1048 314 
1971 989 1047 654 
1972 452 1072 408 
1973 385 1073 1034 
1974 54 1074 134 
1975 163 1074 55 
1976 485 1057 486 
1977 376 1075 418 
1978 1061 1063 661 
1979 667 1075 454 
1980 407 1072 965 
1981 619 1051 567 
1982 740 1094 603 
1983 1031 1049 625 
1984 625 1049 1012 
1985 990 1068 586 
1986 180 1052 869 
1987 893 1065 1064 
1988 418 1063 417 
1989 149 1076 854 
1990 1034 1071 385 
1991 960 1053 919 
1992 721 1150 812 
1993 894 1067 1065 
1994 790 1149 688 
1995 430 1054 433 
1996 569 1078 791 
1997 868 1056 179 
1998 894 1069 1067 
1999 292 1055 900 
2000 310 1070 1069 
2001 512 1058 781 
2002 823 1060 820 
2003 292 1059 1055 
2004 660 1057 659 
2005 931 1059 292 
2006 1054 1064 433 
2007 860 1061 931 
2008 931 1061 1059 
2009 142 1062 108 
2010 661 1063 662 
2011 433 1064 435 
2012 891 1065 893 
2013 641 1087 864 
2014 570 1078 569 
2015 486 1066 472 
2016 444 1067 957 
2017 1035 1060 732 
2018 679 1068 990 
2019 952 1069 894 
2020 135 1110 705 
2021 7 1079 6 
2022 38 1080 37 
2023 40 1081 39 
2024 1068 1086 586 
2025 140 1094 740 
2026 596 1070 595 
2027 356 1071 921 
2028 408 1072 407 
2029 1038 1105 165 
2030 602 1073 675 
2031 688 1149 687 
2032 829 1084 132 
2033 55 1074 54 
2034 454 1075 376 
2035 1065 1067 444 
2036 147 1138 917 
2037 723 1088 33 
2038 1069 1070 596 
2039 696 1105 1038 
2040 607 1155 672 
2041 563 1086 622 
2042 715 1157 703 
2043 573 1096 787 
2044 109 1122 110 
2045 859 1086 1068 
2046 44 1089 727 
2047 854 1076 853 
2048 694 1135 913 
2049 861 1101 169 
2050 91 1123 92 
2051 32 1088 145 
2052 146 1089 45 
2053 152 1090 10 
2054 9 1090 171 
2055 168 1102 739 
2056 927 1144 452 
2057 1052 1082 610 
2058 970 1091 599 
2059 791 1078 789 
2060 521 1093 554 
2061 601 1094 970 
2062 687 1093 523 
2063 173 1152 857 
2064 612 1083 1056 
2065 164 1097 20 
2066 132 1098 58 
2067 57 1098 841 
2068 973 1087 1015 
2069 473 1109 808 
2070 166 1095 826 
2071 653 1078 570 
2072 871 1099 83 
2073 82 1099 149 
2074 418 1077 1063 
2075 164 1111 719 
2076 118 1100 870 
2077 148 1100 119 
2078 861 1151 1101 
2079 169 1101 859 
2080 767 1113 663 
2081 1072 1120 965 
2082 800 1116 803 
2083 1063 1077 662 
2084 600 1103 607 
2085 875 1079 7 
2086 37 1080 174 
2087 175 1081 40 
2088 61 1102 168 
2089 139 1102 62 
2090 764 1117 664 
2091 913 1105 613 
2092 604 1110 513 
2093 672 1119 762 
2094 717 1136 148 
2095 133 1111 22 
2096 21 1111 164 
2097 958 1112 438 
2098 489 1109 469 
2099 467 1109 473 
2100 150 1114 775 
2101 172 1115 127 
2102 610 1082 609 
2103 126 1115 151 
2104 864 1087 865 
2105 611 1083 612 
2106 1103 1153 136 
2107 670 1118 689 
2108 830 1084 829 
2109 715 1132 124 
2110 701 1136 1039 
2111 564 1118 906 
2112 709 1085 708 
2113 801 1120 1072 
2114 662 1116 927 
2115 803 1116 1077 
2116 5 1133 129 
2117 72 1134 4 
2118 113 1133 5 
2119 4 1134 88 
2120 666 1088 723 
2121 720 1124 718 
2122 610 1104 1052 
2123 1052 1104 869 
2124 727 1089 668 
2125 586 1086 563 
2126 131 1137 748 
2127 718 1124 505 
2128 1056 1106 612 
2129 868 1106 1056 
2130 926 1124 660 
2131 917 1138 564 
2132 712 1096 713 
2133 597 1128 598 
2134 137 1130 805 
2135 669 1131 695 
2136 18 1137 131 
2137 872 1138 147 
2138 812 1150 133 
2139 807 1143 810 
2140 2 1140 38 
2141 114 1140 2 
2142 3 1141 87 
2143 39 1141 3 
2144 1 1142 71 
2145 6 1142 1 
2146 678 1139 693 
2147 713 1096 738 
2148 769 1092 178 
2149 125 1157 124 
2150 920 1163 665 
2151 170 1161 873 
2152 438 1160 915 
2153 923 1159 700 
2154 123 1132 140 
2155 33 1088 32 
2156 45 1089 44 
2157 605 1107 690 
2158 660 1108 1057 
2159 1015 1087 641 
2160 10 1090 9 
2161 599 1091 715 
2162 676 1156 1026 
2163 846 1095 166 
2164 903 1095 846 
2165 677 1092 857 
2166 523 1093 521 
2167 603 1094 601 
2168 608 1095 903 
2169 700 1159 1076 
2170 146 1127 1089 
2171 853 1159 554 
2172 1095 1129 826 
2173 1088 1126 145 
2174 20 1097 19 
2175 917 1151 147 
2176 58 1098 57 
2177 675 1136 717 
2178 743 1107 605 
2179 687 1149 852 
2180 83 1099 82 
2181 1114 1152 775 
2182 1107 1148 690 
2183 973 1125 1087 
2184 119 1100 118 
2185 136 1153 707 
2186 738 1112 736 
2187 1086 1101 622 
2188 1084 1156 676 
2189 145 1126 845 
2190 598 1125 973 
2191 1101 1151 622 
2192 1074 1107 743 
2193 628 1156 830 
2194 848 1127 146 
2195 772 1103 600 
2196 869 1104 160 
2197 62 1102 61 
2198 159 1106 868 
2199 908 1104 610 
2200 613 1105 696 
2201 163 1107 1074 
2202 612 1106 905 
2203 139 1139 1102 
2204 140 1132 1091 
2205 513 1110 685 
2206 469 1109 467 
2207 22 1111 21 
2208 489 1143 1109 
2209 704 1112 958 
2210 775 1152 173 
2211 826 1129 137 
2212 663 1113 677 
2213 1057 1108 486 
2214 848 1164 1127 
2215 980 1148 841 
2216 747 1154 162 
2217 789 1114 150 
2218 840 1120 801 
2219 1097 1137 19 
2220 127 1115 126 
2221 682 1117 764 
2222 703 1121 704 
2223 163 1148 1107 
2224 906 1118 670 
2225 1089 1127 668 
2226 762 1119 680 
2227 666 1126 1088 
2228 716 1147 142 
2229 840 1154 1120 
2230 608 1129 1095 
2231 965 1120 746 
2232 143 1155 726 
2233 1087 1125 865 
2234 852 1149 141 
2235 110 1122 155 
2236 1120 1154 746 
2237 653 1114 1078 
2238 1078 1114 789 
2239 913 1135 1105 
2240 1104 1145 160 
2241 871 1145 673 
2242 159 1146 1106 
2243 908 1145 1104 
2244 172 1158 735 
2245 133 1150 1111 
2246 772 1153 1103 
2247 1106 1146 905 
2248 1116 1144 927 
2249 859 1101 1086 
2250 672 1155 1119 
2251 147 1151 861 
2252 674 1146 870 
2253 156 1123 91 
2254 505 1124 926 
2255 1077 1116 662 
2256 768 1158 172 
2257 1117 1147 664 
2258 865 1125 867 
2259 768 1133 177 
2260 178 1134 769 
2261 1076 1159 853 
2262 665 1126 666 
2263 1127 1164 667 
2264 668 1127 667 
2265 177 1133 113 
2266 88 1134 178 
2267 695 1128 597 
2268 1079 1142 6 
2269 38 1140 1080 
2270 1081 1141 39 
2271 141 1149 790 
2272 124 1132 123 
2273 697 1129 608 
2274 690 1148 980 
2275 805 1130 806 
2276 129 1133 768 
2277 769 1134 72 
2278 671 1131 669 
2279 165 1135 856 
2280 1096 1160 738 
2281 653 1152 1114 
2282 19 1137 18 
2283 873 1138 872 
2284 739 1139 678 
2285 179 1140 114 
2286 87 1141 180 
2287 71 1142 176 
2288 850 1164 848 
2289 808 1143 807 
2290 799 1144 800 
2291 160 1145 871 
2292 1039 1136 675 
2293 870 1146 159 
2294 735 1158 711 
2295 673 1145 908 
2296 905 1146 674 
2297 841 1148 163 
2298 719 1150 721 
2299 684 1153 772 
2300 622 1151 917 
2301 162 1154 840 
2302 857 1152 653 
2303 151 1157 125 
2304 700 1162 699 
2305 1102 1139 739 
2306 554 1159 923 
2307 573 1160 1096 
2308 915 1160 573 
2309 830 1156 1084 
2310 874 1161 170 
2311 149 1162 1076 
2312 1026 1156 628 
2313 1109 1143 808 
2314 667 1164 1075 
2315 496 1163 920 
2316 1075 1164 850 
2317 176 1142 1079 
2318 1080 1140 179 
2319 180 1141 1081 
2320 1076 1162 700 
2321 1105 1135 165 
2322 1091 1132 715 
2323 1111 1150 719 
2324 800 1144 1116 
2325 1119 1155 143 
2326 142 1147 1117 
$EndElements
